<svg width="544" height="400" viewBox="0 0 544 400" fill="none" xmlns="http://www.w3.org/2000/svg">
<g clip-path="url(#clip0_4209_2327)">
<path d="M194.562 24.9898C194.552 31.2876 196.932 37.3551 201.221 41.969C201.546 42.3232 201.889 42.6658 202.238 42.9968C215.162 33.0551 228.717 23.96 242.818 15.7685C242.644 15.3272 242.458 14.8917 242.254 14.462C239.855 9.29969 235.764 5.11047 230.659 2.58719C225.554 0.0639077 219.739 -0.642295 214.178 0.585379C208.616 1.81305 203.641 4.90106 200.074 9.33869C196.507 13.7763 194.562 19.2977 194.562 24.9898Z" fill="#FF6584"/>
<path d="M174.278 75.8574L174.301 76.1187C190.75 74.9864 207.198 73.8521 223.643 72.7159C235.526 71.8972 247.82 70.9681 258.32 65.347C262.306 63.2159 266.187 60.3706 270.708 60.1731C276.315 59.9234 281.207 63.8431 285.054 67.9311C307.79 92.134 314.373 129.141 339.881 150.4C323.794 110.751 304.586 72.4397 282.439 35.825C278.349 29.0601 273.497 21.8363 265.903 19.6297C258.657 17.5219 251.243 20.5995 244.572 24.5481C243.143 25.3959 241.749 26.2844 240.4 27.167C230.122 33.8913 220.012 40.8731 210.07 48.1123C197.862 56.991 185.931 66.2394 174.278 75.8574Z" fill="#F2F2F2"/>
<path d="M121.077 127.191C138.659 102.389 159.087 79.7289 181.942 59.6744C188.513 53.9024 195.279 48.3433 202.238 42.9972C215.162 33.0554 228.717 23.9603 242.818 15.7688C247.443 13.0861 252.122 10.5098 256.856 8.03994C260.534 6.12949 264.45 4.38162 268.692 4.65454C271.659 4.90803 274.494 5.99734 276.867 7.79605C282.079 11.5995 285.53 17.5399 288.372 23.2016C290.859 28.1665 293.177 33.23 295.542 38.2646C296.547 40.4073 297.552 42.5442 298.592 44.6695C302.218 52.1139 305.929 59.5176 309.725 66.8807C314.618 76.3691 319.651 85.7859 324.827 95.131C335.698 114.776 347.17 134.066 359.242 153.002C376.987 180.834 395.972 207.823 416.196 233.967C418.677 237.166 419.7 237.91 422.216 241.086C422.797 241.829 423.831 240.784 423.256 240.047C402.274 213.544 384.006 188.505 365.587 160.156C351.7 138.781 338.576 116.932 326.215 94.6084C322.247 87.4486 318.362 80.2442 314.56 72.9953C308.406 61.2596 302.466 49.4137 296.739 37.4574C295.228 34.3101 293.733 31.1511 292.253 27.9806C287.553 17.9174 280.708 2.9531 267.489 3.15635C263.602 3.21445 259.994 4.78807 256.589 6.53013C253.12 8.31284 249.715 10.2059 246.316 12.1279C244.956 12.8944 243.602 13.6725 242.254 14.4623C236.914 17.5631 231.654 20.7936 226.473 24.1539C217.827 29.7575 209.41 35.696 201.221 41.9693C197.334 44.9482 193.504 47.9949 189.733 51.1093C166.072 70.6733 144.797 92.9526 126.347 117.487C124.122 120.443 121.943 123.432 119.811 126.453C119.264 127.225 120.537 127.957 121.077 127.191Z" fill="#E4E4E4"/>
<path d="M180.633 52.2835C179.865 51.4278 179.102 50.5721 178.328 49.7165C172.232 42.9786 165.691 36.3189 157.32 32.4561C153.328 30.5562 148.971 29.5467 144.55 29.4979C139.988 29.6231 135.49 30.6033 131.291 32.3877C129.295 33.1847 127.342 34.0893 125.42 35.0525C123.223 36.1575 121.065 37.336 118.917 38.5241C114.886 40.7538 110.906 43.0812 106.979 45.5065C99.1657 50.3325 91.5967 55.5269 84.2725 61.0897C80.4757 63.9746 76.7572 66.954 73.1171 70.0279C69.7314 72.8834 66.4143 75.8155 63.1656 78.8243C62.4709 79.4648 61.4335 78.4282 62.1283 77.7877C62.9845 76.9907 63.8505 76.1986 64.7165 75.4162C67.1628 73.2061 69.6483 71.0384 72.173 68.913C76.7767 65.0307 81.4998 61.2983 86.3421 57.7158C93.8719 52.1417 101.661 46.9457 109.709 42.1278C113.731 39.7221 117.808 37.4175 121.941 35.2139C123.189 34.5489 124.451 33.8986 125.728 33.2825C128.625 31.8219 131.636 30.5972 134.73 29.6202C139.114 28.203 143.751 27.7477 148.327 28.2853C152.745 28.9275 157.001 30.3991 160.872 32.6224C169.091 37.2138 175.466 44.3134 181.67 51.242C182.297 51.9461 181.264 52.9876 180.633 52.2835Z" fill="#E4E4E4"/>
<path d="M349.049 122.105L368.745 114.906L378.525 111.331C381.684 110.06 384.906 108.951 388.179 108.008C391.04 107.191 394.078 107.23 396.918 108.119C399.45 109.056 401.768 110.492 403.734 112.342C405.742 114.19 407.611 116.184 409.324 118.308C411.453 120.865 413.551 123.449 415.658 126.025C424.354 136.653 432.994 147.328 441.577 158.049C450.159 168.77 458.684 179.536 467.152 190.348C475.64 201.186 484.07 212.07 492.441 222.999C493.467 224.338 494.492 225.677 495.515 227.017C496.081 227.758 497.356 227.028 496.783 226.277C488.349 215.238 479.857 204.245 471.306 193.296C462.734 182.321 454.103 171.393 445.413 160.512C436.723 149.631 427.974 138.796 419.166 128.009C416.972 125.322 414.774 122.638 412.572 119.956C410.715 117.694 408.879 115.408 406.842 113.303C403.104 109.438 398.432 106.023 392.841 105.931C389.554 105.876 386.372 106.919 383.318 108.023C380.025 109.214 376.74 110.426 373.451 111.628L353.617 118.878L348.659 120.691C347.779 121.012 348.159 122.43 349.049 122.105Z" fill="#E4E4E4"/>
<path d="M154.728 40.9341C144.719 35.7932 131.901 36.8001 122.703 43.223C140.247 46.2479 157.599 50.2952 174.67 55.3443C167.581 51.1926 162.036 44.6877 154.728 40.9341Z" fill="#F2F2F2"/>
<path d="M122.604 43.2051L120.677 44.7703C121.329 44.2225 122.007 43.7088 122.703 43.2228C122.67 43.2171 122.637 43.2107 122.604 43.2051Z" fill="#F2F2F2"/>
<path d="M402.992 122.178C401.053 119.819 398.957 117.35 396.057 116.392L393.349 116.498C413.96 152.895 441.796 184.698 475.149 209.956C451.097 180.697 427.044 151.437 402.992 122.178Z" fill="#F2F2F2"/>
<path d="M172.895 129.64C174.608 134.881 178.333 139.229 183.253 141.726C188.172 144.224 193.882 144.667 199.128 142.958C199.722 142.764 200.303 142.544 200.872 142.299C205.646 140.254 209.482 136.498 211.625 131.77C213.768 127.042 214.064 121.683 212.454 116.748C211.943 115.176 211.245 113.672 210.374 112.268C207.7 107.939 203.53 104.741 198.655 103.278C193.78 101.816 188.537 102.19 183.92 104.33C179.302 106.471 175.63 110.229 173.598 114.893C171.567 119.557 171.317 124.804 172.895 129.64Z" fill="#A0616A"/>
<path d="M212.321 117.789C209.437 119.209 206.172 117.151 203.648 115.104L204.551 115.868C200.173 120.213 198.169 126.421 197.221 132.521C196.273 138.615 196.224 144.837 195.013 150.891C193.801 156.938 191.22 163.027 186.32 166.774C179.757 171.792 170.631 171.568 162.498 170.134C162.39 170.113 162.289 170.097 162.18 170.076C164.299 163.752 165.119 157.064 164.588 150.415C162.481 157.105 158.84 163.211 153.954 168.246C148.557 166.821 143.284 164.962 138.187 162.687C134.889 161.211 131.333 159.183 130.386 155.696C129.437 152.236 131.52 148.576 134.334 146.356C137.147 144.136 140.616 142.957 143.831 141.363C147.04 139.777 150.209 137.529 151.466 134.173C154.365 126.451 145.789 117.712 149.018 110.118C150.611 106.383 154.584 104.32 158.323 102.722C164.029 100.289 169.894 98.2448 175.877 96.6028C181.129 95.1603 186.617 94.0249 191.991 94.8798C197.365 95.7348 202.655 98.9418 204.638 104.014C207.871 105.069 211.304 106.26 213.399 108.949C215.494 111.631 215.375 116.288 212.321 117.789Z" fill="#2F2E41"/>
<path d="M329.469 276.608C312.027 274.257 294.66 280.579 277.097 281.722C259.621 282.858 241.942 278.463 226.757 269.767C216.021 263.618 202.836 264.532 192.587 271.461C192.329 271.636 192.068 271.804 191.803 271.966C183.339 277.144 172.886 277.494 162.963 277.696L65.0459 279.688C65.0459 279.688 41.5589 285.251 38.1734 296.975C34.788 308.698 42.2884 321.388 52.655 327.834C63.0215 334.28 75.5974 335.876 87.7461 337.093C165.868 344.908 244.647 343.297 322.384 332.296C336.794 330.255 353.696 325.899 358.608 312.207C364.548 295.65 346.911 278.959 329.469 276.608Z" fill="#CCCCCC"/>
<path d="M109.549 299.83L171.043 292.459C176.779 291.771 182.007 288.835 185.577 284.295C189.146 279.755 190.765 273.984 190.077 268.251C189.389 262.518 186.451 257.294 181.908 253.726C177.365 250.159 171.591 248.541 165.854 249.228L104.361 256.599C98.6265 257.289 93.4012 260.226 89.8336 264.766C86.266 269.305 84.6483 275.074 85.3361 280.806C86.0238 286.537 88.9608 291.76 93.5013 295.327C98.0418 298.895 103.814 300.514 109.549 299.83Z" fill="#2F2E41"/>
<path d="M121.605 145.277L112.592 154.014L101.071 159.122C101.071 159.122 104.469 229.233 100.547 234.22C96.6256 239.208 100.659 238.846 100.458 244.738C100.256 250.63 99.5033 262.749 99.5033 262.749C131.491 275.056 157.472 272.375 176.066 251.259C176.194 250.075 175.914 248.883 175.271 247.881C174.629 246.878 173.662 246.125 172.533 245.746C168.41 244.155 174.708 233.668 171.348 232.443C167.987 231.219 170.773 216.769 170.773 216.769L164.366 188.084L166.118 183.166L157.074 155.442L146.867 153.045L141.832 144.107L121.605 145.277Z" fill="#0D357D"/>
<path d="M242.114 211.255C241.135 210.453 239.992 209.875 238.765 209.561C237.538 209.248 236.258 209.208 235.014 209.443C233.77 209.678 232.592 210.183 231.565 210.922C230.537 211.661 229.684 212.616 229.066 213.72L198.768 208.326L205.094 223.005L232.895 225.876C234.82 226.792 237.014 226.97 239.061 226.376C241.108 225.783 242.867 224.46 244.003 222.658C245.139 220.855 245.574 218.699 245.226 216.597C244.878 214.496 243.771 212.595 242.114 211.255Z" fill="#FFB6B6"/>
<path d="M222.414 226.041L166.886 221.678L166.775 221.468C166.648 221.228 159.05 206.845 152.311 193.382C151.273 191.309 150.256 189.257 149.289 187.283C148.872 186.431 148.465 185.594 148.068 184.774C145.393 179.238 143.261 174.558 142.428 172.099C140.502 166.596 140.517 160.601 142.47 155.108L142.526 154.976L142.652 154.903C145.211 153.439 148.193 152.889 151.107 153.346C154.02 153.803 156.691 155.238 158.679 157.415C168.221 167.978 175.175 180.612 178.993 194.321L181.156 202.122L220.884 211.015L222.414 226.041Z" fill="#0D357D"/>
<path d="M324.834 371.742L333.628 367.538L321.548 330.803L308.569 337.007L324.834 371.742Z" fill="#A0616A"/>
<path d="M265.876 365.819C266.516 366.219 267.155 366.613 267.801 367.006C269.087 367.794 270.385 368.569 271.684 369.33C272.336 369.711 272.995 370.092 273.647 370.467V370.486L273.686 370.492L273.699 370.499L274.694 370.744L276.121 366.974L276.78 365.238L277.71 362.778L279.416 358.278L288.395 334.586L274.435 331.146L273.912 333.282H273.906L273.647 334.341L268.77 354.108L267.775 358.149L267.743 358.272L267.142 360.686L266.626 362.778L266.051 365.115L265.876 365.819Z" fill="#A0616A"/>
<path d="M182.604 282.618C183.489 284.038 184.393 285.452 185.304 286.853C186.996 289.461 188.734 292.03 190.517 294.561C190.517 294.567 190.523 294.567 190.53 294.574C191.57 295.536 192.719 296.375 193.953 297.072C194.005 297.111 194.063 297.136 194.115 297.169C195.024 297.671 195.991 298.059 196.996 298.324C197.357 298.415 197.726 298.505 198.087 298.595C199.392 298.905 200.684 299.17 201.97 299.402C204.256 299.809 206.517 300.099 208.765 300.28C208.946 300.3 209.127 300.313 209.308 300.325C218.551 301.003 227.55 299.912 236.942 298.124C241.58 297.246 246.315 296.194 251.218 295.103C252.82 294.741 254.428 294.386 256.056 294.031C256.179 294.005 256.308 293.973 256.437 293.947C258.762 293.437 261.127 292.934 263.549 292.437C266.598 291.811 269.744 291.204 273.012 290.629L272.78 295.232C272.586 298.773 271.85 302.263 270.597 305.58C269.201 309.66 268.097 312.888 270.429 319.608L271.553 322.862C270.97 324.478 270.77 326.206 270.968 327.912C271.167 329.618 271.758 331.255 272.696 332.694L272.922 333.036L263.549 356.734L262.942 358.271H267.741L273.645 358.277H283.651L298.089 329.33L298.78 327.949V327.878L297.288 272.25C297.268 271.759 297.229 271.262 297.165 270.772C296.902 268.541 296.197 266.386 295.091 264.43C293.985 262.475 292.501 260.76 290.725 259.384C289.023 258.055 287.073 257.077 284.989 256.507C282.906 255.937 280.729 255.787 278.587 256.066L273.645 256.705L263.549 258.009L256.437 258.932L256.295 258.951L235.321 261.663L233.816 255.53L233.538 255.427L224.707 252.192L194.166 241.005L194.089 240.979L192.08 240.243L191.841 240.631C191.77 240.747 191.699 240.863 191.634 240.979C189.649 244.537 188.032 248.287 186.809 252.173C184.752 258.521 183.059 264.98 181.738 271.521C181.68 271.805 181.628 272.063 181.583 272.295L181.564 272.366C181.544 272.476 181.531 272.547 181.525 272.566C180.821 275.497 181.312 279.074 182.604 282.618Z" fill="#2F2E41"/>
<path d="M181.315 262.117C181.412 261.704 181.534 261.284 181.664 260.877C182.689 257.797 183.884 254.776 185.242 251.827C186.767 248.47 188.595 244.874 190.772 240.981C191.824 239.096 192.957 237.136 194.169 235.1C194.777 234.08 195.407 233.041 196.062 231.982C196.088 231.933 196.116 231.886 196.146 231.84L196.333 231.53L226.551 235.571L237.804 237.076L238.476 242.679L238.637 244.067C238.644 244.067 238.644 244.067 238.637 244.073L239.089 247.856V247.863L239.69 252.86L239.742 252.853L256.44 250.69L273.648 248.463L282.892 247.269C285.034 246.99 287.211 247.14 289.294 247.709C291.378 248.279 293.328 249.257 295.03 250.587C296.806 251.963 298.29 253.679 299.395 255.634C300.501 257.589 301.206 259.745 301.47 261.975C301.528 262.427 301.567 262.892 301.586 263.35L310.307 284.001C315.525 296.352 318.848 309.419 320.164 322.761L326.559 343.193L325.648 343.277L312.096 344.536L308.517 344.871L300.637 333.374C299.739 332.063 298.886 330.714 298.092 329.333C296.783 327.076 295.621 324.739 294.61 322.335L277.563 281.794C276.245 282.02 274.94 282.235 273.648 282.439C267.673 283.407 261.937 284.197 256.44 284.808C238.566 286.803 223.089 286.958 209.311 285.267C205.441 284.795 201.701 284.176 198.09 283.407C196.766 283.13 195.459 282.831 194.169 282.51C193.866 282.439 193.569 282.368 193.271 282.291C190.602 281.603 188.148 280.256 186.133 278.375C184.119 276.494 182.609 274.138 181.741 271.523C180.705 268.492 180.557 265.229 181.315 262.117Z" fill="#2F2E41"/>
<path d="M322.025 365.743L331.54 361.185L333.032 360.469L335.415 366.318L352.055 369.978C352.878 370.158 353.622 370.597 354.177 371.229C354.733 371.862 355.072 372.655 355.144 373.494C355.216 374.333 355.018 375.173 354.578 375.891C354.139 376.609 353.481 377.168 352.701 377.486L336.442 384.116L331.281 379.474L332.547 385.704L326.424 388.202L319.712 366.853L322.025 365.743Z" fill="#2F2E41"/>
<path d="M263.549 356.734L262.942 358.271H263.549V356.734Z" fill="#2F2E41"/>
<path d="M266.863 358.6L276.833 362.052L278.398 362.592L275.974 368.424L285.221 382.726C285.678 383.433 285.898 384.267 285.847 385.107C285.797 385.948 285.479 386.75 284.939 387.396C284.4 388.043 283.668 388.501 282.85 388.702C282.033 388.903 281.172 388.838 280.394 388.515L264.173 381.793L263.773 374.866L260.287 380.183L254.176 377.652L264.438 357.763L266.863 358.6Z" fill="#2F2E41"/>
<path d="M306.25 102.347C306.152 103.377 305.83 104.373 305.305 105.265C304.781 106.156 304.067 106.923 303.214 107.509C302.361 108.095 301.39 108.487 300.369 108.658C299.348 108.829 298.302 108.773 297.304 108.496L282.989 129.178L278.106 117.055L292.449 99.2737C293.026 97.6301 294.186 96.255 295.71 95.4091C297.233 94.5632 299.014 94.3052 300.715 94.684C302.417 95.0628 303.92 96.0521 304.94 97.4644C305.96 98.8767 306.426 100.614 306.25 102.347Z" fill="#A0616A"/>
<path d="M293.942 113.757L280.734 107.05L252.503 143.745L201.674 158.808C199.162 159.553 196.844 160.841 194.886 162.581C192.928 164.322 191.377 166.471 190.343 168.878C189.31 171.285 188.82 173.89 188.907 176.507C188.994 179.125 189.657 181.691 190.848 184.024C193.004 188.235 196.744 191.419 201.246 192.878C205.749 194.336 210.646 193.951 214.865 191.805L268.053 164.678L293.942 113.757Z" fill="#3F3D56"/>
<path d="M183.874 167.209C189.049 164.553 193.058 159.966 194.856 151.716L203.253 151.07L231.082 178.317C245.575 196.024 235.043 208.235 234.413 210.051L239.443 233.232L238.316 240.989L237.753 243.294L180.329 273.28L185.166 233.056L180.608 198.151C175.428 182.022 173.323 180.469 183.874 167.209Z" fill="#3F3D56"/>
<path d="M229.439 301.773C228.547 301.246 227.782 300.531 227.197 299.678C226.613 298.824 226.222 297.853 226.054 296.832C225.885 295.811 225.942 294.766 226.222 293.77C226.501 292.774 226.996 291.851 227.671 291.066L215.021 269.326L228.077 270.062L238.087 290.594C239.331 291.814 240.083 293.448 240.202 295.186C240.321 296.923 239.798 298.644 238.732 300.022C237.665 301.4 236.131 302.34 234.418 302.662C232.705 302.985 230.933 302.668 229.439 301.773Z" fill="#A0616A"/>
<path d="M224.334 285.789L236.022 276.69L214.783 235.556L222.742 183.173C223.135 180.584 222.953 177.94 222.209 175.429C221.465 172.918 220.176 170.601 218.436 168.643C216.695 166.686 214.544 165.135 212.136 164.102C209.729 163.068 207.123 162.577 204.503 162.663C199.773 162.824 195.299 164.854 192.064 168.307C188.83 171.76 187.098 176.355 187.248 181.083L189.215 240.728L224.334 285.789Z" fill="#3F3D56"/>
<path d="M175.758 371.839L168.101 378.822L137.507 352.628L148.809 342.322L175.758 371.839Z" fill="#FFB6B6"/>
<path d="M175.43 367.56L173.275 369.525L161.738 373.779L160.35 381.311L160.349 381.311C157.801 383.636 156.281 386.877 156.123 390.321C155.965 393.766 157.183 397.132 159.509 399.679L159.794 399.991L184.484 377.476L175.43 367.56Z" fill="#2F2E41"/>
<path d="M117.75 290.349L124.359 277.595C123.807 264.681 112.599 254.591 99.7288 255.878C92.5617 256.595 85.9837 260.86 83.647 272.898C77.6384 303.852 150.132 365.12 150.132 365.12L162.722 356.684L163.004 348.255L155.623 344.077L155.35 336.907L148.349 333.901L117.75 290.349Z" fill="#2F2E41"/>
<path d="M117.562 122.755C116.518 111.898 124.478 102.251 135.341 101.208C146.204 100.164 155.857 108.119 156.902 118.975C157.946 129.832 149.986 139.479 139.123 140.523C128.26 141.566 118.607 133.611 117.562 122.755Z" fill="#FFB6B6"/>
<path d="M151.629 102.439C149.559 97.891 141.192 95.4026 128.094 96.2031C114.997 97.0037 113.165 112.696 113.165 112.696C105.13 120.598 124.969 137.782 125.776 137.017L125.042 133.501C123.826 127.677 120.627 123.349 123.544 116.877L126.916 116.593L133.422 117.206C133.828 117.245 134.235 117.149 134.58 116.933C134.926 116.717 135.191 116.394 135.334 116.013C135.478 115.632 135.492 115.214 135.375 114.825C135.257 114.435 135.015 114.094 134.685 113.856L134.621 113.81L134.745 113.571C137.095 114.387 139.506 115.121 141.98 115.029C144.764 114.926 147.684 113.534 148.776 110.973C149.065 110.27 149.211 109.516 149.204 108.756C153.08 109.888 155.229 114.322 155.229 114.322C155.229 114.322 153.698 106.986 151.629 102.439Z" fill="#2F2E41"/>
<path d="M121.322 369.902L129.974 375.608L156.112 344.971L143.342 336.551L121.322 369.902Z" fill="#FFB6B6"/>
<path d="M113.582 376.83L141.48 395.226L141.713 394.874C143.613 391.995 144.291 388.481 143.598 385.103C142.906 381.725 140.899 378.76 138.019 376.861L138.019 376.861L135.474 369.637L123.415 367.231L120.979 365.625L113.582 376.83Z" fill="#2F2E41"/>
<path d="M160.867 289.111L152.686 275.819C151.219 262.976 160.718 251.265 173.631 250.533C180.822 250.125 187.985 253.314 192.169 264.841C202.93 294.482 140.871 366.287 140.871 366.287L127.12 359.915L125.527 351.632L132.167 346.356L131.319 339.232L137.766 335.172L160.867 289.111Z" fill="#2F2E41"/>
<path d="M130.219 269.58C130.113 268.319 129.732 267.097 129.102 265.999C128.472 264.902 127.609 263.956 126.573 263.228C125.538 262.499 124.355 262.007 123.109 261.785C121.862 261.563 120.582 261.617 119.359 261.943L102.121 236.465L95.993 251.227L113.302 273.159C113.986 275.176 115.387 276.873 117.239 277.927C119.091 278.981 121.266 279.32 123.351 278.879C125.436 278.438 127.287 277.247 128.553 275.533C129.819 273.82 130.412 271.701 130.219 269.58Z" fill="#FFB6B6"/>
<path d="M105.881 265.759L70.3252 222.912L70.3985 222.687C70.4824 222.428 75.5132 206.96 80.4811 192.749C81.2461 190.56 82.0096 188.402 82.7534 186.333C83.0744 185.44 83.3912 184.566 83.7038 183.71C85.8136 177.934 87.6878 173.145 88.8723 170.835C91.4798 165.621 95.7935 161.454 101.097 159.028L101.232 158.976L101.371 159.015C104.205 159.829 106.677 161.585 108.379 163.991C110.082 166.398 110.912 169.313 110.735 172.255C109.8 186.455 105.577 200.243 98.397 212.532L94.3048 219.517L115.601 254.193L105.881 265.759Z" fill="#0D357D"/>
<path d="M441.936 375.601C392.525 375.601 352.47 363.084 352.47 347.644C352.47 332.203 392.525 319.686 441.936 319.686C491.346 319.686 531.401 332.203 531.401 347.644C531.401 363.084 491.346 375.601 441.936 375.601Z" fill="#F2F2F2"/>
<path d="M441.936 370.164C402.136 370.164 369.872 360.081 369.872 347.644C369.872 335.206 402.136 325.124 441.936 325.124C481.735 325.124 513.999 335.206 513.999 347.644C513.999 360.081 481.735 370.164 441.936 370.164Z" fill="#E6E6E6"/>
<path d="M404.262 331.685C408.449 331.12 412.618 332.638 416.834 332.912C420.364 333.108 423.888 332.443 427.103 330.974C430.318 329.506 433.128 327.279 435.29 324.484C434.014 326.495 435.277 329.327 437.309 330.57C439.341 331.813 441.851 331.897 444.232 331.946L467.738 332.424L467.294 334.451C469.242 332.262 473.376 333.759 474.189 336.574C475.001 339.388 473.201 342.434 470.712 343.982C468.224 345.529 465.205 345.912 462.289 346.204C443.535 348.08 424.624 347.694 405.963 345.053C402.504 344.563 398.446 343.517 397.267 340.23C395.841 336.256 400.075 332.249 404.262 331.685Z" fill="#3F3D56"/>
<path d="M388.757 332.349C389.675 328.228 392.542 324.843 394.258 320.985C395.662 317.743 396.257 314.209 395.991 310.686C395.725 307.163 394.606 303.758 392.73 300.764C394.176 302.656 397.273 302.451 399.142 300.976C401.012 299.5 401.959 297.177 402.829 294.96L411.409 273.085L413.158 274.202C411.777 271.618 414.613 268.26 417.536 268.471C420.46 268.683 422.697 271.425 423.289 274.294C423.881 277.163 423.196 280.126 422.461 282.961C417.735 301.195 410.83 318.794 401.896 335.379C400.239 338.453 397.853 341.895 394.36 341.864C390.135 341.826 387.838 336.47 388.757 332.349Z" fill="#3F3D56"/>
<path d="M390.768 268.719C393.005 265.619 396.191 263.078 399.955 262.154C401.749 261.709 403.622 261.682 405.429 262.076C407.235 262.47 408.927 263.274 410.373 264.425C411.187 265.071 411.929 265.801 412.588 266.603C414.032 268.358 415.565 270.036 417.182 271.633C418.629 262.253 421.621 253.178 426.038 244.777C428.321 240.447 431.014 236.346 434.08 232.53C436.61 229.386 439.354 226.062 443.351 224.823C444.864 224.366 446.459 224.244 448.024 224.466C449.589 224.689 451.087 225.249 452.413 226.109C455.265 228.034 457.338 230.911 458.26 234.225C458.809 236.116 459.051 238.082 458.974 240.049C458.888 242.511 458.229 244.885 457.817 247.302C456.919 252.633 456.677 258.054 457.098 263.443C457.857 273.318 460.835 283.206 466.358 291.482C466.695 291.988 467.043 292.486 467.4 292.978C469.529 287.142 472.789 281.784 476.994 277.209C477.733 276.406 478.503 275.631 479.301 274.884C479.956 274.178 480.742 273.605 481.615 273.196C484.921 271.917 487.298 275.662 486.966 278.571C486.726 280.68 485.345 281.953 484.044 283.498C482.583 285.24 481.262 287.095 480.095 289.045C477.686 292.999 475.996 297.348 475.103 301.891C474.165 306.848 474.602 311.803 475.669 316.701C477.634 325.716 481.084 335.346 477.647 344.478C476.262 348.161 473.727 351.347 470.047 352.921C468.506 353.62 466.824 353.951 465.133 353.888C463.442 353.826 461.789 353.37 460.304 352.559C459.925 352.338 459.562 352.091 459.217 351.82C459.121 352.001 459.015 352.175 458.898 352.342C458.497 352.901 457.86 352.835 457.237 352.859C456.571 352.885 455.905 352.899 455.238 352.902C452.661 352.911 450.087 352.748 447.532 352.416C442.405 351.754 437.382 350.448 432.582 348.529C422.592 344.462 413.687 338.125 406.573 330.022C398.802 321.205 393.083 310.777 389.827 299.488C388.059 293.609 387.083 287.521 386.924 281.384C386.83 276.862 388.176 272.427 390.768 268.719Z" fill="#FD6584"/>
<path d="M482.674 344.124C478.487 343.56 474.318 345.077 470.102 345.352C466.573 345.547 463.049 344.882 459.833 343.414C456.618 341.946 453.809 339.718 451.646 336.924C452.922 338.934 451.659 341.767 449.627 343.01C447.595 344.253 445.086 344.337 442.704 344.385L419.198 344.863L419.642 346.89C417.694 344.702 413.56 346.199 412.747 349.013C411.935 351.827 413.735 354.874 416.224 356.421C418.712 357.969 421.731 358.352 424.648 358.644C443.401 360.52 462.312 360.133 480.973 357.492C484.433 357.002 488.49 355.957 489.669 352.67C491.095 348.695 486.861 344.689 482.674 344.124Z" fill="#3F3D56"/>
<path d="M411.03 347.839C412.486 343.875 415.777 340.9 417.989 337.303C420.127 333.768 421.207 329.695 421.102 325.565C421.049 324.075 421.412 322.6 422.15 321.304C422.888 320.009 423.972 318.944 425.281 318.228C425.348 318.192 425.415 318.155 425.48 318.116C427.529 316.901 428.776 314.723 429.931 312.641L441.334 292.093C441.334 292.093 445.149 287.735 448.018 288.331C450.888 288.928 452.742 291.942 452.949 294.864C453.156 297.785 452.084 300.632 450.981 303.346C443.517 321.687 433.762 339.01 421.946 354.904C420.873 356.383 419.314 357.437 417.541 357.883C411.723 359.262 409.34 352.439 411.03 347.839Z" fill="#3F3D56"/>
<path d="M491.704 346.882C490.248 342.918 486.958 339.943 484.746 336.346C482.608 332.811 481.527 328.737 481.633 324.608C481.685 323.118 481.322 321.643 480.584 320.347C479.846 319.052 478.763 317.986 477.454 317.271C477.386 317.235 477.319 317.198 477.254 317.159C475.205 315.944 473.959 313.766 472.803 311.684L461.401 291.136L459.815 292.475C460.841 289.732 457.586 286.778 454.716 287.374C451.846 287.971 449.992 290.985 449.786 293.907C449.579 296.828 450.65 299.675 451.754 302.388C459.217 320.73 468.973 338.053 480.788 353.947C481.861 355.425 483.421 356.48 485.194 356.926C491.012 358.304 493.395 351.482 491.704 346.882Z" fill="#3F3D56"/>
<path d="M473.821 264.603L473.714 264.441C472.867 264.411 472.041 264.165 471.315 263.727C470.588 263.289 469.986 262.673 469.564 261.937C469.143 261.202 468.915 260.371 468.904 259.523C468.893 258.676 469.098 257.839 469.501 257.093L473.821 264.603Z" fill="#FD6584"/>
<path d="M418.296 233.909C418.757 233.843 419.226 233.912 419.648 234.108C420.584 234.619 420.659 236.023 420.094 236.927C419.441 237.776 418.591 238.452 417.617 238.898C416.641 239.347 415.836 240.1 415.323 241.044C414.909 242.026 415.349 243.424 416.399 243.614L417.172 246.399C415.727 246.008 414.465 245.12 413.609 243.892C412.753 242.664 412.358 241.174 412.492 239.683C412.626 238.192 413.281 236.797 414.343 235.741C415.404 234.685 416.804 234.037 418.296 233.909Z" fill="#FD6584"/>
<path d="M396.627 241.901C395.412 245.744 395.531 249.883 396.965 253.65C396.16 252.907 395.512 252.011 395.058 251.014C394.604 250.018 394.355 248.941 394.323 247.847C394.292 246.752 394.479 245.662 394.875 244.642C395.271 243.621 395.866 242.689 396.627 241.901Z" fill="#FD6584"/>
<path d="M397.144 254.139C397.077 253.978 397.028 253.812 396.966 253.649C397.367 254.031 397.806 254.369 398.277 254.66L397.144 254.139Z" fill="#FD6584"/>
<path d="M312.496 111.125L303.988 80.191C303.695 79.133 302.995 78.234 302.04 77.6914C301.086 77.1487 299.955 77.0067 298.895 77.2964L292.149 79.1497C291.09 79.4417 290.191 80.1416 289.648 81.0957C289.105 82.0498 288.963 83.1801 289.253 84.2388L297.761 115.173C298.053 116.231 298.754 117.13 299.708 117.673C300.663 118.215 301.794 118.357 302.853 118.067L309.6 116.214C310.658 115.922 311.558 115.222 312.101 114.268C312.644 113.314 312.786 112.184 312.496 111.125Z" fill="#3F3D56"/>
<path d="M298.54 79.0909C299.111 78.9348 299.72 79.0114 300.235 79.3038C300.749 79.5962 301.126 80.0806 301.284 80.6508L309.792 111.585C309.949 112.155 309.872 112.764 309.579 113.279C309.287 113.793 308.802 114.17 308.231 114.327L301.485 116.181C300.915 116.337 300.305 116.26 299.791 115.968C299.276 115.675 298.899 115.191 298.741 114.621L290.233 83.6866C290.077 83.1161 290.153 82.507 290.446 81.9928C290.738 81.4787 291.223 81.1015 291.794 80.9441L298.54 79.0909Z" fill="#0D357D"/>
<path d="M510.511 247.917C510.798 247.93 511.082 247.854 511.325 247.701C511.567 247.547 511.757 247.323 511.868 247.058C511.978 246.794 512.005 246.501 511.944 246.221C511.883 245.94 511.737 245.685 511.526 245.491L511.43 245.109L511.468 245.018C512.758 241.945 520.985 250.511 521.341 253.398C521.498 254.675 521.432 255.969 521.146 257.223C523.811 251.413 525.195 245.098 525.204 238.707C525.204 237.103 525.115 235.5 524.936 233.906C524.789 232.6 524.584 231.302 524.323 230.014C522.894 223.026 519.827 216.475 515.374 210.901C512.827 211.043 510.595 210.655 510.379 205.722C510.341 204.845 509.69 204.085 509.546 203.22C509.789 203.252 510.036 203.272 510.28 203.288C510.355 203.292 510.435 203.296 510.511 203.3L510.539 203.301C510.807 203.313 511.072 203.248 511.302 203.113C511.533 202.978 511.72 202.779 511.841 202.54C511.961 202.302 512.01 202.033 511.981 201.767C511.952 201.502 511.848 201.25 511.679 201.042C511.574 200.913 511.469 200.784 511.364 200.655C511.204 200.456 511.041 200.261 510.881 200.061C510.863 200.043 510.846 200.023 510.83 200.002C510.646 199.775 510.463 199.552 510.28 199.324C510.614 198.805 511.064 198.37 511.595 198.054C513.433 196.978 515.968 197.723 517.295 199.384C518.626 201.045 518.878 203.376 518.415 205.451C517.961 207.217 517.208 208.893 516.191 210.407C516.291 210.534 516.394 210.658 516.494 210.785C518.316 213.126 519.903 215.64 521.234 218.291C520.858 215.351 525.463 204.735 527.243 202.486C527.714 201.882 528.354 201.431 529.081 201.19C529.809 200.949 530.591 200.93 531.33 201.133C532.069 201.337 532.731 201.754 533.232 202.334C533.733 202.913 534.051 203.628 534.146 204.388C534.149 204.421 534.153 204.454 534.156 204.487C533.892 204.636 533.633 204.795 533.38 204.962C533.061 205.175 532.815 205.478 532.672 205.833C532.529 206.188 532.497 206.578 532.58 206.951C532.663 207.325 532.857 207.665 533.136 207.926C533.415 208.188 533.767 208.359 534.145 208.417L534.184 208.423C537.725 213.475 526.374 226.625 523.533 223.672C524.871 227.46 525.709 231.405 526.029 235.408C526.209 237.77 526.199 240.143 525.997 242.503L526.009 242.419C526.64 237.279 537.47 229.636 540.632 230.272C542.454 230.639 544.248 230.556 543.972 232.392L543.958 232.48C543.467 232.68 542.989 232.91 542.527 233.169C542.263 233.319 542.004 233.477 541.75 233.644C541.432 233.857 541.186 234.16 541.043 234.515C540.9 234.87 540.868 235.26 540.951 235.634C541.034 236.007 541.228 236.347 541.507 236.608C541.786 236.87 542.138 237.041 542.516 237.099L542.555 237.105C542.583 237.109 542.607 237.113 542.635 237.117C544.246 242.659 532.294 251.603 525.028 248.757H525.024C524.304 251.884 523.261 254.928 521.911 257.84H510.79C510.75 257.716 510.714 257.589 510.678 257.466C511.708 257.53 512.741 257.469 513.755 257.282C512.93 256.27 512.105 255.251 511.28 254.239C511.262 254.22 511.244 254.2 511.228 254.179C510.81 253.661 510.387 253.147 509.969 252.629L509.968 252.629C509.946 251.041 510.129 249.457 510.511 247.917ZM523.246 222.88L523.241 222.872L523.246 222.888V222.88ZM525.71 245.072L525.805 244.857C525.801 244.702 525.801 244.547 525.805 244.387C525.805 244.343 525.813 244.3 525.813 244.256C525.778 244.531 525.746 244.806 525.706 245.08L525.71 245.072Z" fill="#F2F2F2"/>
<path d="M33.4895 267.93C33.8718 269.47 34.0541 271.054 34.0318 272.642L34.0315 272.642C33.613 273.16 33.1905 273.674 32.7719 274.192C32.7558 274.213 32.7385 274.233 32.7201 274.252C31.895 275.263 31.0698 276.283 30.2447 277.295C31.2592 277.481 32.2926 277.543 33.322 277.478C33.2861 277.602 33.2503 277.729 33.2104 277.853H22.0892C20.7395 274.941 19.6961 271.897 18.976 268.77H18.972C11.7059 271.616 -0.246239 262.672 1.36543 257.13C1.3933 257.126 1.41721 257.122 1.44511 257.118L1.48386 257.112C1.86215 257.054 2.21399 256.883 2.4933 256.621C2.7726 256.359 2.96634 256.02 3.04913 255.646C3.13192 255.273 3.0999 254.883 2.95727 254.528C2.81463 254.173 2.56805 253.869 2.2498 253.657C1.99667 253.49 1.73774 253.331 1.47302 253.182C1.0108 252.923 0.532898 252.693 0.0420418 252.493L0.0285568 252.405C-0.248081 250.568 1.5463 250.652 3.36809 250.285C6.53053 249.648 17.3602 257.291 17.9914 262.432L18.0034 262.516C17.8014 260.156 17.7908 257.783 17.9715 255.421C18.2908 251.417 19.1296 247.472 20.4669 243.685C17.6258 246.638 6.27534 233.488 9.81599 228.436L9.85475 228.43C10.233 228.372 10.5849 228.2 10.8642 227.939C11.1435 227.677 11.3373 227.338 11.42 226.964C11.5028 226.591 11.4708 226.201 11.3282 225.846C11.1855 225.491 10.9389 225.187 10.6207 224.975C10.3676 224.808 10.1086 224.649 9.8439 224.5C9.84739 224.467 9.85095 224.434 9.85459 224.401C9.94932 223.641 10.2674 222.926 10.7685 222.346C11.2697 221.767 11.9314 221.349 12.6701 221.146C13.4089 220.942 14.1914 220.962 14.9188 221.203C15.6462 221.444 16.2858 221.895 16.7568 222.499C18.5377 224.747 23.1425 235.364 22.766 238.303C24.097 235.653 25.6847 233.139 27.5064 230.798C27.606 230.671 27.7096 230.547 27.8093 230.42C26.7919 228.906 26.0397 227.23 25.585 225.464C25.1227 223.389 25.3738 221.058 26.7051 219.397C28.0325 217.736 30.5677 216.991 32.4053 218.066C32.9358 218.383 33.386 218.818 33.7207 219.337C33.5373 219.564 33.354 219.787 33.1706 220.014C33.1545 220.035 33.1372 220.055 33.1188 220.074C32.9593 220.273 32.7959 220.469 32.6365 220.668C32.5313 220.797 32.4262 220.926 32.3213 221.055C32.1527 221.262 32.0478 221.514 32.0191 221.78C31.9904 222.046 32.0392 222.314 32.1596 222.553C32.2801 222.792 32.4669 222.991 32.6978 223.126C32.9287 223.261 33.1937 223.326 33.4609 223.314L33.4895 223.313C33.5652 223.309 33.6449 223.305 33.7207 223.301C33.9638 223.285 34.211 223.265 34.4541 223.233C34.3106 224.098 33.6594 224.857 33.621 225.735C33.4055 230.668 31.1734 231.056 28.6265 230.914C24.173 236.488 21.1061 243.038 19.6777 250.027C19.4145 251.314 19.2099 252.611 19.0638 253.919C18.8853 255.513 18.7962 257.116 18.7967 258.719C18.8056 265.111 20.1895 271.425 22.8546 277.235C22.5687 275.981 22.5026 274.687 22.6592 273.411C23.0149 270.523 31.2425 261.958 32.5319 265.031L32.57 265.122L32.474 265.503C32.2632 265.698 32.1173 265.953 32.0563 266.233C31.9952 266.514 32.0219 266.806 32.1326 267.071C32.2434 267.336 32.433 267.56 32.6756 267.714C32.9182 267.867 33.2026 267.943 33.4895 267.93ZM20.7538 242.9L20.7597 242.884L20.7538 242.892V242.9ZM18.2944 265.093C18.2545 264.818 18.2227 264.543 18.1868 264.269C18.1868 264.312 18.1948 264.356 18.1948 264.4C18.1988 264.559 18.1988 264.715 18.1948 264.87L18.2904 265.085L18.2944 265.093Z" fill="#F2F2F2"/>
</g>
<defs>
<clipPath id="clip0_4209_2327">
<rect width="544" height="400" fill="white" transform="matrix(-1 0 0 1 544 -0.00878906)"/>
</clipPath>
</defs>
</svg>
