<svg width="511" height="347" viewBox="0 0 511 347" fill="none" xmlns="http://www.w3.org/2000/svg">
<g clip-path="url(#clip0_4456_37937)">
<g clip-path="url(#clip1_4456_37937)">
<path d="M458.422 339.202C446.961 347.458 432.109 347.873 417.753 346.859C415.748 346.717 413.758 346.551 411.786 346.372C411.774 346.369 411.758 346.37 411.746 346.367C411.651 346.358 411.556 346.349 411.465 346.344C411.058 346.306 410.651 346.268 410.248 346.229L410.343 346.411L410.642 346.975C410.535 346.786 410.427 346.601 410.32 346.413C410.288 346.356 410.253 346.3 410.222 346.243C406.503 339.771 402.814 333.062 401.873 325.671C400.9 318.001 403.634 309.315 410.385 305.545C411.27 305.052 412.208 304.659 413.18 304.374C413.584 304.252 413.993 304.152 414.407 304.064C416.939 303.502 419.575 303.624 422.044 304.418C424.513 305.213 426.726 306.65 428.455 308.583C430.184 310.516 431.367 312.875 431.883 315.417C432.398 317.958 432.227 320.592 431.388 323.046C437.111 317.177 436.044 307.655 434.069 299.698C432.091 291.741 429.696 282.887 433.72 275.74C435.956 271.762 439.89 269.294 444.303 268.299C444.439 268.27 444.574 268.241 444.71 268.216C449.969 267.15 455.436 268.108 460.02 270.898C468.46 276.217 472.795 286.301 474.201 296.179C476.468 312.074 471.452 329.814 458.422 339.202Z" fill="#F2F2F2"/>
<path d="M454.721 313.721C454.389 317.227 453.547 320.666 452.221 323.929C451 326.817 449.354 329.506 447.337 331.907C443.145 336.813 437.836 340.641 431.857 343.069C427.334 344.921 422.595 346.195 417.753 346.859C415.748 346.717 413.758 346.551 411.786 346.372C411.774 346.369 411.758 346.37 411.746 346.367C411.651 346.358 411.556 346.349 411.465 346.344C411.058 346.306 410.651 346.268 410.248 346.229L410.343 346.411L410.642 346.975C410.535 346.786 410.427 346.601 410.32 346.413C410.288 346.356 410.253 346.3 410.222 346.243C413.852 342.626 416.562 338.192 418.126 333.312C419.689 328.432 420.06 323.248 419.208 318.195C418.315 313.177 416.25 308.442 413.18 304.374C413.584 304.252 413.993 304.152 414.407 304.064C415.574 305.659 416.597 307.354 417.465 309.13C420.58 315.461 421.574 322.627 420.3 329.567C419.115 335.848 416.163 341.66 411.79 346.321C412.173 346.294 412.559 346.263 412.938 346.228C420.104 345.621 427.255 344.08 433.755 340.925C439.311 338.293 444.135 334.335 447.801 329.4C451.737 323.971 453.472 317.441 453.77 310.804C453.999 303.653 453.25 296.505 451.542 289.557C449.886 282.473 447.37 275.618 444.049 269.146C443.975 268.999 443.96 268.829 444.007 268.672C444.054 268.514 444.161 268.381 444.303 268.299C444.423 268.219 444.569 268.189 444.71 268.216C444.779 268.234 444.843 268.268 444.897 268.314C444.951 268.36 444.995 268.419 445.023 268.484C445.433 269.284 445.835 270.084 446.222 270.893C449.443 277.632 451.815 284.746 453.282 292.07C454.707 299.135 455.467 306.526 454.721 313.721Z" fill="white"/>
<path d="M21.3196 110.434C20.9784 110.434 20.6402 110.37 20.3224 110.246C19.8084 110.049 19.3667 109.699 19.0559 109.245C18.745 108.791 18.5798 108.252 18.5822 107.702V79.1824C18.5811 78.2171 18.1971 77.2916 17.5145 76.609C16.832 75.9264 15.9065 75.5424 14.9412 75.5413H9.10108C6.68815 75.5386 4.37483 74.5789 2.66863 72.8727C0.962434 71.1665 0.00270429 68.8532 0 66.4402V9.10106C0.00270589 6.68814 0.962434 4.37483 2.66863 2.66863C4.37483 0.962435 6.68815 0.00270429 9.10108 0H215.098C217.511 0.00270749 219.824 0.962436 221.53 2.66863C223.236 4.37483 224.196 6.68814 224.199 9.10106V66.4402C224.196 68.8531 223.236 71.1665 221.53 72.8727C219.824 74.5788 217.511 75.5386 215.098 75.5413H56.0976C55.5929 75.5419 55.0938 75.6471 54.6318 75.8503C54.1699 76.0536 53.755 76.3504 53.4136 76.722L23.3247 109.546C23.0707 109.826 22.7611 110.049 22.4158 110.202C22.0706 110.355 21.6972 110.434 21.3196 110.434ZM9.10108 1.21273C7.00968 1.21509 5.00462 2.04694 3.52578 3.52578C2.04694 5.00462 1.21509 7.00967 1.21273 9.10106V66.4402C1.21509 68.5316 2.04694 70.5367 3.52578 72.0155C5.00462 73.4944 7.00968 74.3262 9.10108 74.3286H14.9412C16.228 74.33 17.4618 74.8419 18.3717 75.7518C19.2816 76.6618 19.7935 77.8956 19.7949 79.1824V107.702C19.7949 108.007 19.8873 108.306 20.0599 108.558C20.2325 108.811 20.4773 109.005 20.7622 109.116C21.0471 109.227 21.3589 109.249 21.6566 109.179C21.9544 109.11 22.2242 108.952 22.4308 108.727L52.5197 75.9025C52.9749 75.4071 53.5278 75.0114 54.1437 74.7405C54.7595 74.4696 55.4249 74.3293 56.0977 74.3286H215.098C217.189 74.3262 219.194 73.4944 220.673 72.0155C222.152 70.5367 222.984 68.5316 222.986 66.4402V9.10106C222.984 7.00967 222.152 5.00462 220.673 3.52578C219.194 2.04694 217.189 1.21509 215.098 1.21273H9.10108Z" fill="#CCCCCC"/>
<path d="M22.3239 25.825C26.7222 25.825 30.2877 22.2595 30.2877 17.8613C30.2877 13.463 26.7222 9.89746 22.3239 9.89746C17.9256 9.89746 14.3601 13.463 14.3601 17.8613C14.3601 22.2595 17.9256 25.825 22.3239 25.825Z" fill="#CCCCCC"/>
<path d="M205.807 61.9273H18.3922C17.834 61.928 17.2812 61.8186 16.7653 61.6055C16.2494 61.3923 15.7805 61.0796 15.3856 60.6851C14.9907 60.2906 14.6773 59.8222 14.4636 59.3065C14.2498 58.7909 14.1398 58.2382 14.1398 57.68C14.1398 57.1218 14.2498 56.5691 14.4636 56.0534C14.6773 55.5378 14.9907 55.0693 15.3856 54.6749C15.7805 54.2804 16.2494 53.9676 16.7653 53.7545C17.2812 53.5413 17.834 53.432 18.3922 53.4326H205.807C206.365 53.432 206.918 53.5413 207.434 53.7545C207.95 53.9676 208.418 54.2804 208.813 54.6749C209.208 55.0693 209.522 55.5378 209.735 56.0534C209.949 56.5691 210.059 57.1218 210.059 57.68C210.059 58.2382 209.949 58.7909 209.735 59.3065C209.522 59.8222 209.208 60.2906 208.813 60.6851C208.418 61.0796 207.95 61.3923 207.434 61.6055C206.918 61.8186 206.365 61.928 205.807 61.9273Z" fill="#CCCCCC"/>
<path d="M144.751 43.8761H18.3922C17.834 43.8767 17.2812 43.7674 16.7653 43.5542C16.2494 43.341 15.7805 43.0283 15.3856 42.6338C14.9907 42.2394 14.6773 41.7709 14.4636 41.2553C14.2498 40.7396 14.1398 40.1869 14.1398 39.6287C14.1398 39.0705 14.2498 38.5178 14.4636 38.0021C14.6773 37.4865 14.9907 37.018 15.3856 36.6236C15.7805 36.2291 16.2494 35.9164 16.7653 35.7032C17.2812 35.4901 17.834 35.3807 18.3922 35.3814H144.751C145.309 35.3807 145.862 35.4901 146.378 35.7032C146.894 35.9164 147.363 36.2291 147.758 36.6236C148.153 37.018 148.466 37.4865 148.68 38.0021C148.893 38.5178 149.003 39.0705 149.003 39.6287C149.003 40.1869 148.893 40.7396 148.68 41.2553C148.466 41.7709 148.153 42.2394 147.758 42.6338C147.363 43.0283 146.894 43.341 146.378 43.5542C145.862 43.7674 145.309 43.8767 144.751 43.8761Z" fill="#CCCCCC"/>
<path d="M21.3196 312.715C20.9784 312.714 20.6402 312.65 20.3224 312.526C19.8085 312.329 19.3667 311.98 19.0559 311.525C18.7451 311.071 18.5798 310.532 18.5822 309.982V281.463C18.5811 280.497 18.1971 279.572 17.5145 278.889C16.832 278.207 15.9065 277.823 14.9412 277.822H9.10108C6.68815 277.819 4.37484 276.859 2.66864 275.153C0.962444 273.447 0.00271071 271.133 0 268.721V211.381C0.00270589 208.968 0.962436 206.655 2.66863 204.949C4.37483 203.243 6.68815 202.283 9.10108 202.28H215.098C217.511 202.283 219.824 203.243 221.53 204.949C223.236 206.655 224.196 208.968 224.199 211.381V268.721C224.196 271.133 223.236 273.447 221.53 275.153C219.824 276.859 217.511 277.819 215.098 277.822H56.0976C55.5929 277.822 55.0938 277.927 54.6318 278.131C54.1699 278.334 53.755 278.631 53.4136 279.002L23.3247 311.827C23.0707 312.106 22.7611 312.329 22.4158 312.482C22.0706 312.635 21.6972 312.714 21.3196 312.715ZM9.10108 203.493C7.00968 203.495 5.00462 204.327 3.52578 205.806C2.04694 207.285 1.21508 209.29 1.21273 211.381V268.721C1.21509 270.812 2.04694 272.817 3.52578 274.296C5.00462 275.775 7.00968 276.606 9.10108 276.609H14.9412C16.228 276.61 17.4618 277.122 18.3717 278.032C19.2816 278.942 19.7935 280.176 19.7949 281.463V309.982C19.7949 310.288 19.8873 310.586 20.0599 310.839C20.2325 311.091 20.4773 311.285 20.7622 311.396C21.0471 311.507 21.3589 311.529 21.6566 311.46C21.9544 311.39 22.2242 311.233 22.4308 311.007L52.5197 278.183C52.9749 277.687 53.5278 277.292 54.1437 277.021C54.7595 276.75 55.4249 276.61 56.0977 276.609H215.098C217.189 276.606 219.194 275.775 220.673 274.296C222.152 272.817 222.984 270.812 222.986 268.721V211.381C222.984 209.29 222.152 207.285 220.673 205.806C219.194 204.327 217.189 203.495 215.098 203.493L9.10108 203.493Z" fill="#CCCCCC"/>
<path d="M325.522 207.593C325.144 207.592 324.771 207.513 324.425 207.36C324.08 207.207 323.771 206.984 323.517 206.705L293.428 173.88C293.086 173.509 292.671 173.212 292.209 173.009C291.747 172.805 291.248 172.7 290.744 172.7H131.744C129.331 172.697 127.017 171.737 125.311 170.031C123.605 168.325 122.645 166.011 122.642 163.598V106.259C122.645 103.846 123.605 101.533 125.311 99.8268C127.017 98.1206 129.331 97.1609 131.744 97.1582H337.74C340.153 97.1609 342.466 98.1206 344.173 99.8268C345.879 101.533 346.839 103.846 346.841 106.259V163.598C346.839 166.011 345.879 168.325 344.173 170.031C342.466 171.737 340.153 172.697 337.74 172.7H331.9C330.935 172.701 330.009 173.085 329.327 173.767C328.644 174.45 328.26 175.375 328.259 176.341V204.86C328.262 205.41 328.096 205.949 327.785 206.403C327.475 206.858 327.033 207.207 326.519 207.404C326.201 207.528 325.863 207.592 325.522 207.593ZM131.744 98.3709C129.652 98.3733 127.647 99.2051 126.168 100.684C124.689 102.163 123.858 104.168 123.855 106.259V163.598C123.858 165.69 124.689 167.695 126.168 169.174C127.647 170.653 129.652 171.484 131.744 171.487H290.744C291.416 171.488 292.082 171.628 292.698 171.899C293.313 172.17 293.866 172.565 294.321 173.061L324.41 205.885C324.617 206.11 324.887 206.268 325.185 206.338C325.482 206.407 325.794 206.385 326.079 206.274C326.364 206.163 326.609 205.969 326.781 205.716C326.954 205.464 327.046 205.166 327.046 204.86V176.341C327.048 175.054 327.56 173.82 328.47 172.91C329.38 172 330.613 171.488 331.9 171.487H337.74C339.832 171.484 341.837 170.653 343.316 169.174C344.794 167.695 345.626 165.69 345.629 163.598V106.259C345.626 104.168 344.794 102.163 343.316 100.684C341.837 99.2051 339.832 98.3733 337.74 98.3709L131.744 98.3709Z" fill="#3F3D56"/>
<path d="M22.3239 228.105C26.7222 228.105 30.2877 224.54 30.2877 220.142C30.2877 215.743 26.7222 212.178 22.3239 212.178C17.9256 212.178 14.3601 215.743 14.3601 220.142C14.3601 224.54 17.9256 228.105 22.3239 228.105Z" fill="#CCCCCC"/>
<path d="M205.807 264.208H18.3922C17.834 264.208 17.2812 264.099 16.7653 263.886C16.2494 263.673 15.7805 263.36 15.3856 262.965C14.9907 262.571 14.6773 262.102 14.4636 261.587C14.2498 261.071 14.1398 260.518 14.1398 259.96C14.1398 259.402 14.2498 258.849 14.4636 258.334C14.6773 257.818 14.9907 257.35 15.3856 256.955C15.7805 256.561 16.2494 256.248 16.7653 256.035C17.2812 255.822 17.834 255.712 18.3922 255.713H205.807C206.933 255.713 208.014 256.16 208.81 256.957C209.607 257.753 210.054 258.834 210.054 259.96C210.054 261.087 209.607 262.167 208.81 262.964C208.014 263.76 206.933 264.208 205.807 264.208Z" fill="#CCCCCC"/>
<path d="M144.751 246.156H18.3922C17.834 246.157 17.2812 246.048 16.7653 245.834C16.2494 245.621 15.7805 245.309 15.3856 244.914C14.9907 244.52 14.6773 244.051 14.4636 243.536C14.2498 243.02 14.1398 242.467 14.1398 241.909C14.1398 241.351 14.2498 240.798 14.4636 240.282C14.6773 239.767 14.9907 239.298 15.3856 238.904C15.7805 238.509 16.2494 238.197 16.7653 237.983C17.2812 237.77 17.834 237.661 18.3922 237.662H144.751C145.309 237.661 145.862 237.77 146.378 237.983C146.894 238.197 147.363 238.509 147.758 238.904C148.153 239.298 148.466 239.767 148.68 240.282C148.893 240.798 149.003 241.351 149.003 241.909C149.003 242.467 148.893 243.02 148.68 243.536C148.466 244.051 148.153 244.52 147.758 244.914C147.363 245.309 146.894 245.621 146.378 245.834C145.862 246.048 145.309 246.157 144.751 246.156Z" fill="#CCCCCC"/>
<path d="M144.966 122.452C149.365 122.452 152.93 118.887 152.93 114.489C152.93 110.09 149.365 106.525 144.966 106.525C140.568 106.525 137.002 110.09 137.002 114.489C137.002 118.887 140.568 122.452 144.966 122.452Z" fill="#3F3D56"/>
<path d="M328.449 158.555H141.035C139.908 158.555 138.828 158.107 138.031 157.311C137.235 156.514 136.787 155.434 136.787 154.307C136.787 153.181 137.235 152.101 138.031 151.304C138.828 150.508 139.908 150.06 141.035 150.06H328.449C329.576 150.06 330.656 150.508 331.452 151.304C332.249 152.101 332.696 153.181 332.696 154.307C332.696 155.434 332.249 156.514 331.452 157.311C330.656 158.107 329.576 158.555 328.449 158.555Z" fill="#0D357D"/>
<path d="M267.393 140.504H141.035C140.476 140.504 139.923 140.395 139.408 140.182C138.892 139.969 138.423 139.656 138.028 139.261C137.633 138.867 137.32 138.398 137.106 137.883C136.892 137.367 136.782 136.814 136.782 136.256C136.782 135.698 136.892 135.145 137.106 134.63C137.32 134.114 137.633 133.645 138.028 133.251C138.423 132.857 138.892 132.544 139.408 132.331C139.923 132.117 140.476 132.008 141.035 132.009H267.393C267.952 132.008 268.504 132.117 269.02 132.331C269.536 132.544 270.005 132.857 270.4 133.251C270.795 133.645 271.108 134.114 271.322 134.63C271.536 135.145 271.646 135.698 271.646 136.256C271.646 136.814 271.536 137.367 271.322 137.883C271.108 138.398 270.795 138.867 270.4 139.261C270.005 139.656 269.536 139.969 269.02 140.182C268.504 140.395 267.952 140.504 267.393 140.504Z" fill="#0D357D"/>
<path d="M328.367 218.508C328.549 217.635 328.921 216.813 329.455 216.1C329.989 215.386 330.673 214.798 331.459 214.377C332.245 213.957 333.113 213.713 334.003 213.665C334.893 213.616 335.783 213.763 336.61 214.095L350.835 197.75L353.857 208.597L339.885 222.456C339.235 223.808 338.111 224.875 336.726 225.454C335.341 226.033 333.793 226.084 332.373 225.598C330.953 225.111 329.761 224.121 329.023 222.814C328.285 221.507 328.052 219.975 328.367 218.508Z" fill="#FFB8B8"/>
<path d="M406.439 141.805C414.664 141.805 421.332 135.137 421.332 126.912C421.332 118.687 414.664 112.019 406.439 112.019C398.214 112.019 391.546 118.687 391.546 126.912C391.546 135.137 398.214 141.805 406.439 141.805Z" fill="#FFB8B8"/>
<path d="M388.943 331.907L381.509 331.906L377.973 303.232L388.945 303.233L388.943 331.907Z" fill="#FFB8B8"/>
<path d="M390.839 339.113L366.869 339.112V338.809C366.869 337.583 367.11 336.37 367.579 335.238C368.048 334.106 368.735 333.078 369.602 332.211C370.468 331.345 371.497 330.658 372.629 330.189C373.76 329.72 374.974 329.479 376.199 329.479L390.839 329.48L390.839 339.113Z" fill="#2F2E41"/>
<path d="M411.378 339.789L403.945 339.789L402.915 311.8L411.38 311.116L411.378 339.789Z" fill="#FFB8B8"/>
<path d="M413.274 346.996L389.304 346.995V346.691C389.304 345.466 389.546 344.253 390.015 343.121C390.483 341.989 391.171 340.961 392.037 340.094C392.903 339.228 393.932 338.541 395.064 338.072C396.196 337.603 397.409 337.362 398.634 337.362L413.275 337.362L413.274 346.996Z" fill="#2F2E41"/>
<path d="M409.264 334.557L403.475 333.875C402.819 333.796 402.213 333.482 401.77 332.991C401.327 332.5 401.077 331.866 401.066 331.204L399.981 255.81C399.978 255.597 399.9 255.391 399.76 255.23C399.621 255.068 399.429 254.96 399.219 254.926C399.008 254.891 398.792 254.932 398.609 255.04C398.425 255.149 398.285 255.319 398.214 255.52L390.182 278.197L390.757 320.704C390.767 321.406 390.506 322.084 390.028 322.599C389.55 323.113 388.893 323.423 388.193 323.465L380.635 323.786C379.944 323.825 379.263 323.602 378.73 323.16C378.196 322.719 377.849 322.092 377.758 321.406L373.811 273.321L373.808 273.291L379.798 223.072L424.779 226.327L412.293 332.167C412.214 332.83 411.895 333.441 411.396 333.885C410.897 334.329 410.252 334.574 409.585 334.576C409.477 334.576 409.37 334.569 409.264 334.557Z" fill="#2F2E41"/>
<path d="M379.99 227.524C379.586 227.308 379.243 226.994 378.993 226.611C378.744 226.227 378.595 225.786 378.562 225.33C378.562 225.33 382.607 200.175 384.089 199.703L380.846 172.803C380.457 169.522 380.728 166.197 381.643 163.022C382.557 159.847 384.096 156.887 386.17 154.315C388.167 151.82 390.649 149.756 393.467 148.246C396.284 146.737 399.377 145.814 402.561 145.533C403.014 145.493 403.465 145.461 403.914 145.44C407.751 145.234 411.582 145.959 415.08 147.551C418.578 149.143 421.639 151.556 424.005 154.585C426.458 157.64 428.138 161.243 428.9 165.086C429.662 168.93 429.484 172.9 428.382 176.66L426.563 182.991V227.228C426.562 227.66 426.458 228.086 426.262 228.47C426.066 228.855 425.783 229.188 425.435 229.444C419.77 233.601 413.37 235.07 407.149 235.07C395.379 235.07 384.255 229.807 379.99 227.524Z" fill="#0D357D"/>
<path d="M345.07 219.429L337.246 213.579C336.939 213.349 336.684 213.058 336.497 212.723C336.311 212.388 336.196 212.018 336.162 211.636C336.128 211.255 336.175 210.87 336.299 210.508C336.424 210.145 336.623 209.813 336.884 209.533L383.491 159.523C384.987 157.932 387.004 156.93 389.176 156.699C391.348 156.468 393.531 157.024 395.328 158.265C396.423 159.028 397.337 160.024 398.003 161.181C398.67 162.337 399.073 163.627 399.184 164.957C399.296 166.287 399.113 167.626 398.648 168.877C398.183 170.128 397.448 171.262 396.496 172.197L348.615 219.191C348.194 219.608 347.649 219.876 347.061 219.953C346.474 220.031 345.878 219.914 345.363 219.621C345.261 219.563 345.163 219.499 345.07 219.429Z" fill="#0D357D"/>
<path d="M404.947 212.807C405.289 211.984 405.807 211.246 406.465 210.645C407.124 210.044 407.906 209.594 408.756 209.328C409.607 209.061 410.506 208.985 411.389 209.103C412.273 209.222 413.119 209.533 413.87 210.014L430.9 196.617L431.84 207.838L415.523 218.839C414.631 220.046 413.328 220.884 411.859 221.194C410.391 221.504 408.86 221.265 407.556 220.521C406.252 219.778 405.267 218.582 404.786 217.16C404.305 215.738 404.362 214.19 404.947 212.807Z" fill="#FFB8B8"/>
<path d="M420.19 218.037C419.74 217.897 419.333 217.642 419.012 217.296C418.69 216.951 418.465 216.527 418.357 216.067L416.637 208.842C416.511 208.329 416.539 207.79 416.717 207.293C416.894 206.796 417.215 206.362 417.638 206.045L429.213 193.527L412.187 167.274C410.898 165.687 410.172 163.718 410.121 161.675C410.07 159.631 410.698 157.629 411.907 155.98C412.87 154.666 414.163 153.631 415.656 152.978C417.148 152.325 418.787 152.078 420.405 152.262C422.024 152.447 423.565 153.056 424.873 154.027C426.18 154.999 427.207 156.299 427.851 157.796L443.679 188.605C445.253 191.666 445.645 195.199 444.782 198.531C443.919 201.863 441.86 204.76 438.998 206.672L422.822 217.477C422.326 217.921 421.685 218.166 421.021 218.167C420.739 218.166 420.459 218.123 420.19 218.037Z" fill="#0D357D"/>
<path d="M417.474 140.226C417.123 140.437 416.729 140.564 416.321 140.597C415.913 140.631 415.503 140.57 415.122 140.42C414.741 140.27 414.4 140.034 414.126 139.73C413.851 139.427 413.649 139.065 413.537 138.671L413.528 138.634C413.224 137.395 413.464 136.098 413.542 134.824C413.621 133.551 413.488 132.154 412.617 131.222C410.991 129.486 408.121 130.427 405.782 129.998C404.412 129.7 403.197 128.912 402.365 127.783C401.533 126.654 401.141 125.261 401.263 123.863C401.295 123.599 401.346 123.333 401.403 123.068C401.545 122.397 401.53 121.702 401.359 121.037C401.187 120.372 400.864 119.756 400.415 119.238C399.965 118.719 399.402 118.311 398.768 118.047C398.135 117.783 397.448 117.669 396.764 117.714C394.403 117.862 391.857 118.591 389.894 116.852C389.174 116.166 388.672 115.283 388.451 114.314C388.229 113.344 388.298 112.331 388.649 111.4C389.748 108.174 392.892 106.471 396.007 105.528C399.861 104.392 403.918 104.129 407.886 104.759C411.853 105.388 415.631 106.893 418.944 109.165C420.922 110.544 422.772 112.28 423.624 114.536C424.476 116.791 424.086 119.645 422.2 121.147C423.677 122.694 424.721 124.602 425.228 126.679C425.735 128.757 425.687 130.931 425.09 132.984C424.17 136.004 419.72 138.918 417.474 140.226Z" fill="#2F2E41"/>
<path d="M511 346.839C511 347 510.936 347.154 510.822 347.268C510.708 347.381 510.554 347.445 510.394 347.446H279.369C279.209 347.446 279.054 347.382 278.941 347.268C278.827 347.154 278.763 347 278.763 346.839C278.763 346.678 278.827 346.524 278.941 346.411C279.054 346.297 279.209 346.233 279.369 346.233H510.394C510.554 346.233 510.708 346.297 510.822 346.411C510.936 346.525 511 346.679 511 346.839Z" fill="#3F3D56"/>
</g>
</g>
<defs>
<clipPath id="clip0_4456_37937">
<rect width="511" height="347" fill="white"/>
</clipPath>
<clipPath id="clip1_4456_37937">
<rect width="511" height="347.446" fill="white"/>
</clipPath>
</defs>
</svg>
