<svg width="500" height="342" viewBox="0 0 500 342" fill="none" xmlns="http://www.w3.org/2000/svg">
<g clip-path="url(#clip0_4659_12196)">
<g opacity="0.17">
<path d="M376.819 84.0923C381.025 82.2973 372.496 81.2525 362.82 80.9089C353.143 80.5654 341.438 80.5844 335.254 79.6072C329.274 78.6621 329.714 76.9818 329.211 75.4593C328.708 73.9368 326.409 72.3757 317.077 72.0373C305.448 71.6156 286.272 73.2389 277.493 72.2643C269.301 71.3548 274.171 68.502 262.225 68.3928C255.404 68.3305 246.617 69.271 239.027 69.498C231.901 69.7111 226.63 69.2698 222.93 68.6765C219.231 68.0832 216.654 67.331 212.491 66.807C201.56 65.4311 180.174 65.8936 161.086 67.6569C141.998 69.4203 125.636 72.3101 116.408 75.1722C107.181 78.0344 104.631 80.8525 106.781 83.2422C108.153 84.7681 111.666 86.195 120.186 86.8082C136.122 87.9551 164.494 85.9809 180.961 87.0244C190.139 87.606 194.211 89.0479 202.264 89.8369C210.915 90.6845 223.579 90.7295 236.022 90.7094C261.93 90.6675 288.501 90.4069 315.595 89.9291C326.911 89.7295 338.769 89.47 350.811 88.5189C362.852 87.5677 375.135 85.7326 377.675 84.0121" fill="white"/>
</g>
<path d="M467.766 52.3246C467.566 51.8208 467.348 51.3212 467.121 50.8345C467.487 50.9754 467.854 51.1291 468.216 51.2956L467.766 52.3246Z" fill="#0D357D"/>
<path d="M271.261 113.182C267.916 107.767 263.952 101.984 257.744 100.216C250.555 98.1677 243.17 102.236 236.906 106.251C218.173 118.257 200.132 131.268 182.866 145.225L182.885 145.435C196.327 144.528 209.769 143.621 223.211 142.713C232.922 142.058 242.968 141.312 251.55 136.815C254.807 135.108 257.981 132.829 261.672 132.67C266.257 132.472 270.255 135.607 273.396 138.882C291.981 158.254 297.359 187.878 318.209 204.897C305.061 173.159 289.363 142.491 271.261 113.182Z" fill="#F2F2F2"/>
<path d="M385.497 277.49C383.442 274.95 382.602 274.355 380.575 271.791C364.069 250.894 348.554 229.291 334.031 206.982C324.167 191.83 314.792 176.387 305.905 160.654C301.675 153.174 297.56 145.636 293.562 138.038C290.459 132.148 287.425 126.222 284.461 120.26C283.613 118.558 282.79 116.847 281.97 115.133C280.039 111.101 278.143 107.05 276.108 103.073C273.789 98.5409 270.966 93.7892 266.707 90.744C264.769 89.3013 262.452 88.4284 260.025 88.2273C256.559 88.0081 253.36 89.4093 250.353 90.9397C228.353 102.169 207.756 116.248 189.127 132.269C170.449 148.325 153.755 166.465 139.384 186.319C138.944 186.933 137.905 186.346 138.348 185.728C140.096 183.309 141.878 180.916 143.695 178.549C166.284 149.141 193.981 123.852 225.522 103.837C230.828 100.471 236.234 97.2623 241.74 94.2119C244.515 92.6737 247.302 91.155 250.137 89.7303C252.916 88.3329 255.867 87.0765 259.042 87.0295C269.846 86.8651 275.44 98.8423 279.283 106.901C280.49 109.438 281.713 111.966 282.949 114.487C287.624 124.057 292.478 133.54 297.512 142.935C300.619 148.736 303.794 154.502 307.037 160.235C317.129 178.088 327.856 195.578 339.218 212.708C354.268 235.398 369.199 255.442 386.345 276.661C386.817 277.248 385.973 278.085 385.497 277.49Z" fill="#E4E4E4"/>
<path d="M188.059 126.354C187.431 125.67 186.807 124.985 186.175 124.3C181.193 118.906 175.847 113.575 169.005 110.483C165.743 108.962 162.182 108.154 158.569 108.115C154.834 108.126 151.184 109.085 147.733 110.428C146.102 111.066 144.506 111.79 142.935 112.561C141.139 113.446 139.376 114.389 137.621 115.34C134.326 117.125 131.073 118.988 127.864 120.929C121.478 124.793 115.292 128.951 109.306 133.404C106.203 135.713 103.165 138.098 100.19 140.559C97.4226 142.845 94.7116 145.192 92.0565 147.6C91.4888 148.113 90.641 147.283 91.2088 146.771C91.9085 146.133 92.6163 145.498 93.324 144.872C95.3233 143.103 97.3547 141.368 99.418 139.666C103.181 136.559 107.04 133.571 110.998 130.703C117.152 126.241 123.518 122.082 130.095 118.225C133.382 116.299 136.714 114.454 140.092 112.69C141.111 112.158 142.143 111.637 143.187 111.144C145.555 109.975 148.015 108.995 150.544 108.213C154.126 107.078 157.917 106.714 161.656 107.144C165.267 107.658 168.745 108.836 171.908 110.616C178.626 114.291 183.836 119.974 188.906 125.521C189.418 126.084 188.574 126.918 188.059 126.354Z" fill="#E4E4E4"/>
<path d="M325.699 182.247L341.797 176.484L349.789 173.622C352.392 172.691 354.988 171.63 357.679 170.962C360.018 170.308 362.5 170.339 364.821 171.051C366.89 171.801 368.785 172.951 370.391 174.432C372.033 175.911 373.56 177.507 374.96 179.208C376.7 181.255 378.415 183.323 380.137 185.385C387.244 193.893 394.305 202.438 401.319 211.02C408.333 219.602 415.3 228.221 422.221 236.875C429.158 245.551 436.047 254.264 442.889 263.012C443.727 264.084 444.565 265.156 445.401 266.229C445.864 266.822 446.906 266.238 446.437 265.637C439.545 256.8 432.605 248 425.616 239.235C418.611 230.45 411.557 221.702 404.454 212.992C397.352 204.281 390.202 195.608 383.004 186.973C381.21 184.822 379.414 182.673 377.615 180.527C376.097 178.716 374.597 176.886 372.932 175.201C369.876 172.107 366.059 169.374 361.489 169.299C358.802 169.256 356.202 170.09 353.706 170.974C351.015 171.927 348.33 172.898 345.643 173.86L329.433 179.664L325.381 181.115C324.661 181.372 324.972 182.507 325.699 182.247Z" fill="#E4E4E4"/>
<path d="M166.887 117.27C158.707 113.154 148.231 113.96 140.714 119.102C155.052 121.523 169.234 124.763 183.185 128.805C177.392 125.481 172.86 120.274 166.887 117.27Z" fill="#F2F2F2"/>
<path d="M140.634 119.088L139.059 120.341C139.592 119.902 140.145 119.491 140.714 119.102C140.687 119.098 140.66 119.092 140.634 119.088Z" fill="#F2F2F2"/>
<path d="M369.785 182.305C368.201 180.417 366.488 178.44 364.118 177.673L361.905 177.758C378.749 206.894 401.499 232.352 428.757 252.571C409.1 229.149 389.443 205.727 369.785 182.305Z" fill="#F2F2F2"/>
<path d="M462.275 277.079C457.669 286.186 450.398 294.144 442.041 300.284C429.23 309.699 413.981 315.356 398.719 320.129C312.522 347.101 218.368 349.184 131.014 326.056C106.85 319.66 82.5637 311.018 63.7687 294.832C57.7528 289.649 52.5058 283.669 48.1797 277.066C73.1946 263.608 103.513 258.535 132.445 259.155C173.921 260.043 214.429 270.879 255.517 276.485C303.905 283.078 353.035 282.415 401.219 274.521C417.933 271.776 435.232 268.185 451.593 272.531C455.354 273.548 458.95 275.079 462.275 277.079Z" fill="#9B9B9C"/>
<path d="M78.2149 43.5504C90.5005 43.5504 100.46 33.8013 100.46 21.7752C100.46 9.74908 90.5005 0 78.2149 0C65.9292 0 55.9697 9.74908 55.9697 21.7752C55.9697 33.8013 65.9292 43.5504 78.2149 43.5504Z" fill="#FF4000"/>
<path d="M146.324 20.6406C140.437 14.5953 133.6 9.08033 125.506 6.16608C123.251 5.35084 120.913 4.77577 118.533 4.45081C118.513 4.44825 118.495 4.45204 118.476 4.45053C118.438 4.44076 118.398 4.43322 118.359 4.42793C115.029 4.01275 111.65 4.21247 108.396 5.01672C106.804 5.40762 105.252 5.93702 103.757 6.59858C102.257 7.31505 100.803 8.12149 99.4041 9.0133C96.4433 10.7482 93.1835 11.9386 89.7854 12.5258C88.0797 12.8264 86.3521 12.9924 84.6192 13.0222C83.1157 13.0517 81.6977 13.1028 80.2731 13.6346C78.7514 14.1947 77.3845 15.0952 76.2815 16.2643C75.1785 17.4334 74.3699 18.8387 73.9202 20.368C73.8855 20.5042 73.896 20.6476 73.95 20.7777C74.0041 20.9077 74.0989 21.0175 74.2209 21.0913C74.6062 21.3614 74.9819 21.668 75.3868 21.9087C75.747 22.07 76.1317 22.1727 76.5257 22.2127C77.1694 22.3456 77.8139 22.4747 78.4592 22.5999C80.8366 23.061 83.2239 23.4692 85.6211 23.8244C90.4717 24.5432 95.3485 25.0495 100.251 25.3434C110.074 25.9257 119.929 25.6358 129.698 24.4771C135.188 23.8261 140.641 22.9029 146.035 21.711C146.145 21.6797 146.244 21.6214 146.323 21.5416C146.402 21.4618 146.459 21.3633 146.488 21.2556C146.518 21.1479 146.518 21.0347 146.489 20.9269C146.46 20.8192 146.403 20.7205 146.324 20.6406Z" fill="#F0F0F0"/>
<path d="M79.2706 35.1993C77.016 34.384 74.6782 33.809 72.2977 33.484C72.2786 33.4815 72.2605 33.4852 72.2414 33.4837C72.2027 33.474 72.1634 33.4664 72.1238 33.4611C68.7944 33.046 65.4151 33.2457 62.1609 34.0499C60.5696 34.4408 59.0171 34.9702 57.5221 35.6318C56.0217 36.3483 54.5681 37.1547 53.1692 38.0465C50.2085 39.7814 46.9486 40.9718 43.5505 41.5591C41.8448 41.8597 40.1172 42.0256 38.3844 42.0554C36.8808 42.0849 35.4628 42.1361 34.0383 42.6678C32.5166 43.2279 31.1497 44.1285 30.0466 45.2975C28.9436 46.4666 28.135 47.8719 27.6853 49.4012C27.6507 49.5374 27.6611 49.6809 27.7152 49.8109C27.7692 49.9409 27.8641 50.0507 27.986 50.1245C28.3714 50.3947 28.747 50.7012 29.1519 50.9419C29.5121 51.1032 29.8968 51.2059 30.2908 51.2459C30.9345 51.3789 31.579 51.5079 32.2243 51.6331C34.6018 52.0942 36.9891 52.5024 39.3862 52.8576C44.2368 53.5764 49.1136 54.0827 54.0166 54.3766C63.8387 54.959 73.6945 54.669 83.4632 53.5103C88.9532 52.8594 94.406 51.9361 99.8004 50.7442C99.9097 50.713 100.009 50.6546 100.088 50.5748C100.168 50.495 100.225 50.3965 100.254 50.2888C100.283 50.1811 100.283 50.0679 100.254 49.9601C100.225 49.8524 100.168 49.7537 100.089 49.6738C94.202 43.6285 87.3647 38.1135 79.2706 35.1993Z" fill="#F0F0F0"/>
<path d="M456.859 251.116L468.707 242.31L474.482 247.963L455.18 260.893L456.859 251.116Z" fill="#2F2E41"/>
<path d="M445.808 275.362H405.277L406.698 270.853C415.509 267.731 410.56 261.021 418.941 256.919C439.44 246.886 447.376 216.946 444.374 205.111L457.807 204.555C457.807 204.555 476.359 256.126 445.808 275.362Z" fill="#2F2E41"/>
<path d="M480.41 254.168C479.2 255.21 477.651 255.798 476.039 255.827C474.427 255.857 472.856 255.326 471.607 254.329L471.581 254.308L471.58 254.275C471.565 253.722 471.477 253.174 471.318 252.644C471.31 253.026 471.253 253.405 471.149 253.773L471.115 253.896L471.024 253.804C470.945 253.725 470.869 253.644 470.797 253.565C470.377 253.098 470.025 252.576 469.751 252.014C468.44 249.375 466.541 247.058 464.194 245.234C463.775 244.9 463.385 244.533 463.028 244.136C461.521 242.457 460.674 240.308 460.637 238.074C460.601 235.84 461.379 233.666 462.831 231.941C464.283 230.217 466.315 229.055 468.562 228.663C470.81 228.271 473.126 228.675 475.097 229.803L475.157 229.837L475.126 229.898C474.898 230.362 474.596 230.788 474.233 231.159C474.733 230.895 475.195 230.568 475.609 230.187L475.652 230.146L475.702 230.18C476.349 230.618 476.939 231.132 477.459 231.711L477.515 231.774C477.912 232.218 478.4 232.576 478.947 232.823C479.495 233.07 480.089 233.202 480.692 233.209C481.676 233.225 482.644 233.45 483.531 233.867C484.417 234.285 485.2 234.885 485.827 235.628C486.454 236.37 486.909 237.236 487.161 238.167C487.413 239.098 487.456 240.071 487.287 241.019L487.279 241.063L487.235 241.076C486.471 241.333 485.661 241.432 484.855 241.367C485.528 241.654 486.244 241.83 486.975 241.887L487.07 241.894L487.04 241.982C486.659 243.102 485.981 244.102 485.076 244.881L485.05 244.904L485.022 244.927C484.348 245.496 483.796 246.191 483.399 246.971C483.002 247.751 482.769 248.601 482.712 249.471C482.667 250.365 482.44 251.24 482.045 252.047C481.65 252.853 481.094 253.574 480.41 254.168Z" fill="#9B9B9C"/>
<path opacity="0.15" d="M481.65 252.025C481.638 252.265 481.612 252.504 481.573 252.741C482.237 251.744 482.619 250.592 482.68 249.402C482.689 249.22 482.709 249.039 482.735 248.858C482.09 249.8 481.715 250.893 481.65 252.025Z" fill="black"/>
<path opacity="0.15" d="M483.793 243.921C484.334 244.15 484.904 244.308 485.488 244.39C485.712 244.158 485.92 243.91 486.108 243.648C485.364 243.892 484.576 243.985 483.793 243.921Z" fill="black"/>
<path opacity="0.15" d="M486.29 241.731C486.35 242.308 486.334 242.889 486.242 243.461C486.565 242.98 486.822 242.46 487.008 241.914L487.038 241.826L486.944 241.819C486.725 241.8 486.506 241.771 486.29 241.731Z" fill="black"/>
<path opacity="0.15" d="M485.66 235.403C485.033 234.707 484.264 234.146 483.404 233.756C482.543 233.367 481.609 233.157 480.661 233.14C480.058 233.133 479.463 233.001 478.916 232.754C478.368 232.507 477.88 232.149 477.483 231.705L477.427 231.642C476.908 231.064 476.317 230.549 475.67 230.111L475.621 230.078L475.577 230.118C475.163 230.499 474.701 230.826 474.201 231.091C474.565 230.719 474.866 230.293 475.094 229.829L475.126 229.769L475.066 229.734C473.759 228.986 472.29 228.55 470.779 228.463C469.267 228.376 467.757 228.64 466.369 229.233C464.982 229.827 463.758 230.733 462.796 231.877C461.835 233.022 461.163 234.373 460.837 235.82C461.466 234.739 462.307 233.791 463.313 233.03C464.319 232.27 465.469 231.712 466.697 231.39C467.925 231.068 469.205 230.987 470.465 231.153C471.725 231.319 472.938 231.728 474.035 232.356L474.095 232.391L474.064 232.452C473.836 232.915 473.534 233.341 473.171 233.713C473.671 233.449 474.133 233.122 474.547 232.74L474.59 232.7L474.64 232.733C475.287 233.171 475.877 233.686 476.397 234.264L476.453 234.327C476.85 234.772 477.338 235.129 477.885 235.376C478.433 235.624 479.027 235.755 479.63 235.762C481.206 235.789 482.725 236.349 483.926 237.348C485.127 238.348 485.937 239.724 486.218 241.243C486.551 241.184 486.88 241.106 487.204 241.008L487.248 240.995L487.255 240.951C487.432 239.968 487.381 238.959 487.104 237.999C486.828 237.038 486.334 236.151 485.66 235.403Z" fill="black"/>
<path d="M500 207.95C500 213.031 498.158 217.948 494.803 221.825C491.449 225.703 486.798 228.29 481.677 229.127L481.569 229.144L481.485 229.076C480.089 227.936 478.549 226.979 476.901 226.227C477.827 227.058 478.642 227.999 479.329 229.029L479.562 229.372L479.142 229.392C478.778 229.409 478.417 229.418 478.069 229.418C476.021 229.42 473.983 229.143 472.013 228.596C463.064 226.104 453.453 225.677 443.449 227.329C441.734 227.611 439.998 227.753 438.258 227.753C430.907 227.751 423.798 225.187 418.202 220.521C412.606 215.855 408.89 209.391 407.718 202.288C406.547 195.184 407.997 187.905 411.809 181.752C415.621 175.6 421.546 170.977 428.522 168.71L428.735 168.641L428.819 168.845C429.479 170.371 429.889 171.989 430.035 173.641C430.445 171.896 430.621 170.106 430.557 168.316L430.551 168.127L430.738 168.081C433.198 167.481 435.723 167.178 438.258 167.178L438.533 167.179C440.474 167.185 442.394 166.79 444.169 166.02C445.944 165.251 447.533 164.123 448.833 162.712C450.965 160.419 453.579 158.605 456.495 157.395C459.411 156.185 462.561 155.607 465.727 155.703C468.893 155.798 472 156.563 474.835 157.946C477.67 159.329 480.165 161.297 482.149 163.714L482.241 163.826L482.18 163.957C480.899 166.721 479.503 168.735 477.837 170.208C479.975 169.226 481.932 167.904 483.629 166.296L483.848 166.088L484.002 166.346C485.957 169.629 486.986 173.361 486.985 177.16L486.985 177.269C486.984 177.307 486.984 177.345 486.984 177.383C486.984 183.196 489.28 188.705 493.294 192.515C495.406 194.521 497.086 196.92 498.238 199.57C499.389 202.221 499.989 205.07 500 207.95Z" fill="#0D357D"/>
<g opacity="0.15">
<path d="M473.188 157.216C472.432 158.445 471.501 159.562 470.425 160.534C471.966 159.826 473.416 158.939 474.742 157.893C474.233 157.648 473.715 157.422 473.188 157.216Z" fill="black"/>
<path d="M485.883 182.841C487.075 183.974 488.133 185.235 489.036 186.601C487.677 183.711 486.977 180.565 486.984 177.383C486.984 177.345 486.984 177.306 486.985 177.268L486.985 177.16C486.986 173.36 485.957 169.628 484.002 166.346L483.848 166.088L483.629 166.296C482.42 167.44 481.077 168.441 479.629 169.277C479.944 174.396 482.169 179.223 485.883 182.841Z" fill="black"/>
<path d="M479.573 167.486L479.573 167.595C479.572 167.633 479.572 167.671 479.572 167.71C479.572 167.92 479.576 168.131 479.582 168.34C480.615 166.98 481.487 165.51 482.18 163.957L482.241 163.826L482.149 163.714C480.992 162.304 479.659 161.042 478.181 159.958C479.101 162.366 479.572 164.915 479.573 167.486Z" fill="black"/>
<path d="M493.294 192.515C492.239 191.51 491.302 190.394 490.499 189.186C491.937 192.184 492.645 195.466 492.57 198.777C492.494 202.087 491.637 205.336 490.064 208.268C488.492 211.2 486.247 213.735 483.506 215.676C480.765 217.617 477.602 218.91 474.266 219.454L474.157 219.471L474.073 219.402C472.678 218.263 471.137 217.305 469.489 216.554C470.415 217.385 471.231 218.326 471.917 219.355L472.15 219.699L471.73 219.718C471.366 219.736 471.005 219.744 470.657 219.744C468.609 219.746 466.571 219.469 464.601 218.922C455.652 216.43 446.041 216.004 436.037 217.656C434.322 217.938 432.586 218.08 430.846 218.08C423.264 218.085 415.946 215.354 410.293 210.407C412.801 215.592 416.76 219.974 421.71 223.044C426.66 226.115 432.398 227.748 438.258 227.753C439.997 227.753 441.734 227.611 443.449 227.329C453.453 225.678 463.063 226.104 472.013 228.596C473.983 229.143 476.021 229.42 478.069 229.418C478.417 229.418 478.778 229.409 479.141 229.392L479.562 229.372L479.329 229.029C478.642 227.999 477.827 227.058 476.901 226.228C478.548 226.979 480.089 227.937 481.485 229.076L481.569 229.145L481.677 229.127C485.684 228.475 489.427 226.745 492.488 224.132C495.55 221.518 497.809 218.123 499.014 214.326C500.218 210.529 500.322 206.478 499.312 202.627C498.302 198.776 496.219 195.275 493.294 192.515Z" fill="black"/>
</g>
<path d="M58.4633 239.515L42.4067 227.583L34.5803 235.244L60.738 252.766L58.4633 239.515Z" fill="#2F2E41"/>
<path d="M73.4391 272.373H128.366L126.439 266.263C114.5 262.032 121.206 252.938 109.849 247.38C82.0692 233.783 71.3146 193.21 75.3824 177.172L57.178 176.418C57.178 176.418 32.0374 246.305 73.4391 272.373Z" fill="#2F2E41"/>
<path d="M23.4285 237.287C23.3517 236.108 23.0351 234.957 22.4975 233.899C21.9598 232.842 21.2118 231.9 20.2975 231.129C20.2851 231.119 20.2727 231.108 20.2603 231.097L20.2252 231.067C18.9981 230.012 18.0795 228.656 17.5633 227.139L17.5227 227.019L17.6506 227.009C18.6415 226.932 19.6124 226.694 20.5237 226.305C19.4323 226.393 18.334 226.259 17.2982 225.911L17.2389 225.893L17.2284 225.834C16.9995 224.548 17.0578 223.229 17.3993 221.968C17.7408 220.707 18.3574 219.533 19.2067 218.527C20.056 217.521 21.1178 216.707 22.319 216.141C23.5203 215.576 24.8325 215.271 26.1654 215.249C26.9823 215.24 27.788 215.061 28.5298 214.726C29.2717 214.391 29.933 213.907 30.4708 213.305L30.5467 213.219C31.2512 212.435 32.051 211.738 32.9285 211.144L32.9955 211.099L33.0546 211.153C33.6148 211.67 34.2415 212.114 34.9189 212.472C34.4262 211.968 34.0177 211.391 33.7084 210.763L33.6661 210.68L33.7475 210.634C36.4184 209.105 39.5578 208.558 42.6036 209.089C45.6494 209.62 48.4027 211.194 50.3704 213.531C52.3382 215.868 53.3919 218.814 53.3428 221.842C53.2938 224.87 52.1452 227.782 50.1028 230.057C49.6194 230.595 49.0909 231.093 48.523 231.545C45.3421 234.017 42.7686 237.157 40.9924 240.733C40.6214 241.495 40.1442 242.202 39.5744 242.835C39.4776 242.943 39.3744 243.052 39.2679 243.16L39.1445 243.284L39.0985 243.116C38.957 242.618 38.8799 242.104 38.8691 241.587C38.6537 242.305 38.5345 243.048 38.5145 243.797L38.5132 243.842L38.4775 243.87C37.1531 244.929 35.5543 245.606 33.8597 245.826C32.165 246.047 30.4411 245.802 28.8803 245.119C27.3194 244.436 25.9832 243.342 25.0205 241.959C24.0578 240.577 23.5066 238.959 23.4285 237.287Z" fill="#9B9B9C"/>
<path opacity="0.15" d="M24.8674 240.748C24.884 241.073 24.9186 241.397 24.9712 241.719C24.0716 240.367 23.554 238.806 23.4711 237.194C23.4589 236.947 23.4325 236.702 23.397 236.457C24.2709 237.732 24.7788 239.214 24.8674 240.748Z" fill="black"/>
<path opacity="0.15" d="M21.9626 229.765C21.2296 230.076 20.4575 230.29 19.6667 230.401C19.362 230.086 19.0809 229.75 18.8254 229.396C19.8346 229.727 20.9021 229.852 21.9626 229.765Z" fill="black"/>
<path opacity="0.15" d="M18.579 226.798C18.4974 227.579 18.5195 228.367 18.6447 229.143C18.2069 228.491 17.8576 227.786 17.6058 227.046L17.5652 226.926L17.6932 226.916C17.9903 226.892 18.2859 226.852 18.579 226.798Z" fill="black"/>
<path opacity="0.15" d="M19.4333 218.223C20.283 217.279 21.3243 216.519 22.4908 215.991C23.6572 215.463 24.9232 215.179 26.2081 215.156C27.0251 215.146 27.8307 214.968 28.5725 214.633C29.3144 214.298 29.9757 213.814 30.5135 213.212L30.5894 213.126C31.2939 212.342 32.0937 211.645 32.9711 211.051L33.0382 211.006L33.0973 211.06C33.6575 211.577 34.2842 212.021 34.9616 212.379C34.4689 211.875 34.0604 211.298 33.7511 210.67L33.7088 210.587L33.7902 210.541C35.5609 209.526 37.5514 208.936 39.5995 208.818C41.6476 208.7 43.6951 209.058 45.5751 209.862C47.4551 210.666 49.1143 211.894 50.4172 213.445C51.7201 214.996 52.6299 216.827 53.0723 218.788C52.2202 217.323 51.0795 216.038 49.7163 215.007C48.3531 213.977 46.7945 213.221 45.1309 212.785C43.4672 212.348 41.7316 212.239 40.0246 212.464C38.3176 212.688 36.6731 213.243 35.1865 214.094L35.1051 214.141L35.1473 214.223C35.4566 214.852 35.8651 215.428 36.3579 215.932C35.6805 215.574 35.0537 215.131 34.4936 214.614L34.4344 214.559L34.3674 214.605C33.49 215.199 32.6901 215.896 31.9857 216.68L31.9098 216.765C31.372 217.367 30.7106 217.851 29.9688 218.187C29.227 218.522 28.4213 218.7 27.6044 218.71C25.4682 218.745 23.4108 219.505 21.7828 220.859C20.1548 222.213 19.0571 224.078 18.6768 226.136C18.2252 226.057 17.7791 225.951 17.3409 225.818L17.2816 225.8L17.2711 225.741C17.0314 224.409 17.1013 223.042 17.4756 221.74C17.85 220.439 18.5191 219.236 19.4333 218.223Z" fill="black"/>
<path d="M9.08721 160.102C14.5269 154.939 17.6385 147.473 17.6385 139.597C17.6385 139.545 17.6385 139.493 17.6381 139.441L17.6377 139.294C17.6357 134.145 19.0309 129.088 21.6806 124.639L21.8888 124.29L22.1856 124.571C24.485 126.751 27.1374 128.542 30.0352 129.873C27.7771 127.877 25.8853 125.148 24.1488 121.401L24.0662 121.224L24.1913 121.072C26.8797 117.796 30.2611 115.13 34.1029 113.256C37.9446 111.382 42.1555 110.344 46.4459 110.215C50.7362 110.086 55.0042 110.869 58.9562 112.509C62.9082 114.148 66.4504 116.607 69.3391 119.715C71.1008 121.627 73.2545 123.155 75.6597 124.198C78.0649 125.241 80.6677 125.776 83.2984 125.768L83.6703 125.767C87.1055 125.766 90.5278 126.177 93.861 126.99L94.1153 127.053L94.1062 127.309C94.0205 129.734 94.2585 132.16 94.8143 134.525C95.0113 132.287 95.5672 130.093 96.4617 128.025L96.5755 127.75L96.8637 127.843C106.318 130.914 114.347 137.179 119.513 145.517C124.679 153.854 126.644 163.72 125.056 173.346C123.469 182.972 118.433 191.731 110.85 198.055C103.267 204.378 93.6318 207.852 83.6703 207.856C81.3131 207.856 78.96 207.663 76.6354 207.281C63.0784 205.043 50.055 205.62 37.9272 208.998C35.2574 209.739 32.4954 210.114 29.7202 210.112C29.2481 210.112 28.7589 210.1 28.2666 210.077L27.6963 210.05L28.0128 209.584C28.943 208.189 30.0484 206.914 31.3029 205.788C29.0703 206.807 26.9821 208.104 25.0905 209.648L24.9769 209.741L24.8301 209.718C19.4 208.833 14.3278 206.489 10.1794 202.948C6.03098 199.406 2.96958 194.805 1.33681 189.659C-0.295965 184.513 -0.435879 179.025 0.932677 173.805C2.30123 168.586 5.12442 163.842 9.08721 160.102Z" fill="#0D357D"/>
<g opacity="0.15">
<path d="M36.3347 112.267C37.3594 113.931 38.6202 115.445 40.0793 116.763C37.99 115.803 36.0257 114.601 34.2285 113.184C34.9179 112.851 35.62 112.546 36.3347 112.267Z" fill="black"/>
<path d="M19.1314 146.992C17.515 148.528 16.0814 150.237 14.8579 152.088C16.6991 148.171 17.6479 143.908 17.6384 139.596C17.6384 139.544 17.6384 139.492 17.6381 139.44L17.6377 139.293C17.6356 134.144 19.0308 129.087 21.6805 124.639L21.8888 124.289L22.1855 124.571C23.8242 126.121 25.6436 127.477 27.6061 128.611C27.1002 135.694 24.0793 142.296 19.1314 146.992Z" fill="black"/>
<path d="M27.682 126.184L27.6824 126.331C27.6827 126.383 27.6827 126.435 27.6827 126.487C27.6827 126.772 27.6774 127.057 27.6693 127.342C26.2696 125.499 25.0885 123.506 24.1488 121.401L24.0662 121.223L24.1913 121.072C25.7593 119.162 27.5656 117.452 29.5679 115.981C28.3212 119.245 27.6824 122.7 27.682 126.184Z" fill="black"/>
<path d="M9.0872 160.102C10.517 158.74 11.7875 157.227 12.8752 155.59C10.9273 159.653 9.96681 164.101 10.069 168.587C10.1712 173.074 11.3334 177.476 13.4643 181.449C15.5952 185.422 18.6371 188.858 22.3516 191.488C26.0661 194.118 30.3523 195.87 34.8743 196.608L35.0211 196.631L35.1347 196.539C37.0263 194.994 39.1145 193.697 41.3472 192.678C40.0926 193.804 38.9872 195.079 38.057 196.474L37.7406 196.94L38.3109 196.967C38.8032 196.99 39.2923 197.002 39.7645 197.002C42.5396 197.004 45.3017 196.629 47.9715 195.888C60.0992 192.51 73.1227 191.933 86.6796 194.171C89.0042 194.554 91.3573 194.746 93.7145 194.746C103.989 194.753 113.906 191.052 121.567 184.349C118.169 191.375 112.804 197.313 106.096 201.474C99.388 205.635 91.6117 207.847 83.6703 207.855C81.3131 207.855 78.96 207.663 76.6354 207.281C63.0784 205.042 50.055 205.62 37.9273 208.997C35.2574 209.739 32.4954 210.114 29.7202 210.111C29.2481 210.111 28.7589 210.099 28.2666 210.076L27.6963 210.049L28.0128 209.584C28.943 208.189 30.0483 206.913 31.3029 205.788C29.0703 206.806 26.9821 208.104 25.0905 209.648L24.9769 209.741L24.83 209.717C19.4 208.833 14.3278 206.489 10.1794 202.947C6.03097 199.405 2.96958 194.805 1.33681 189.659C-0.295964 184.513 -0.435879 179.024 0.932676 173.805C2.30123 168.586 5.12442 163.842 9.0872 160.102Z" fill="black"/>
</g>
<path d="M200.781 81.1232C201.986 81.1232 202.962 80.1674 202.962 78.9883C202.962 77.8093 201.986 76.8535 200.781 76.8535C199.577 76.8535 198.6 77.8093 198.6 78.9883C198.6 80.1674 199.577 81.1232 200.781 81.1232Z" fill="white"/>
<path d="M363.912 131.505C364.635 131.505 365.221 130.932 365.221 130.224C365.221 129.517 364.635 128.943 363.912 128.943C363.189 128.943 362.604 129.517 362.604 130.224C362.604 130.932 363.189 131.505 363.912 131.505Z" fill="white"/>
<path d="M389.211 73.865C389.933 73.865 390.519 73.2915 390.519 72.5841C390.519 71.8767 389.933 71.3032 389.211 71.3032C388.488 71.3032 387.902 71.8767 387.902 72.5841C387.902 73.2915 388.488 73.865 389.211 73.865Z" fill="white"/>
<path d="M154.982 35.4383C155.705 35.4383 156.291 34.8648 156.291 34.1574C156.291 33.4499 155.705 32.8765 154.982 32.8765C154.26 32.8765 153.674 33.4499 153.674 34.1574C153.674 34.8648 154.26 35.4383 154.982 35.4383Z" fill="white"/>
<path d="M141.897 87.1008C142.62 87.1008 143.205 86.5274 143.205 85.82C143.205 85.1125 142.62 84.5391 141.897 84.5391C141.174 84.5391 140.588 85.1125 140.588 85.82C140.588 86.5274 141.174 87.1008 141.897 87.1008Z" fill="white"/>
<path d="M78.2148 73.865C78.9375 73.865 79.5233 73.2915 79.5233 72.5841C79.5233 71.8767 78.9375 71.3032 78.2148 71.3032C77.4921 71.3032 76.9062 71.8767 76.9062 72.5841C76.9062 73.2915 77.4921 73.865 78.2148 73.865Z" fill="white"/>
<path d="M303.719 84.5388C304.442 84.5388 305.028 83.9654 305.028 83.2579C305.028 82.5505 304.442 81.9771 303.719 81.9771C302.997 81.9771 302.411 82.5505 302.411 83.2579C302.411 83.9654 302.997 84.5388 303.719 84.5388Z" fill="white"/>
<path d="M437.626 43.1233C438.349 43.1233 438.935 42.5498 438.935 41.8424C438.935 41.135 438.349 40.5615 437.626 40.5615C436.904 40.5615 436.318 41.135 436.318 41.8424C436.318 42.5498 436.904 43.1233 437.626 43.1233Z" fill="white"/>
<path d="M131.778 155.443C130.12 152.439 129.889 148.502 131.924 145.73C132.93 149.309 135.198 152.425 138.325 154.525C139.534 155.331 140.964 156.104 141.378 157.477C141.596 158.353 141.461 159.276 141.003 160.058C140.546 160.829 139.99 161.54 139.348 162.174L139.29 162.388C136.289 160.648 133.435 158.447 131.778 155.443Z" fill="#9B9B9C"/>
<path d="M385.634 240.409C383.977 237.405 383.745 233.468 385.78 230.696C386.787 234.275 389.054 237.391 392.181 239.491C393.39 240.297 394.821 241.07 395.234 242.443C395.452 243.318 395.318 244.242 394.86 245.024C394.402 245.795 393.846 246.506 393.204 247.139L393.146 247.354C390.145 245.614 387.291 243.412 385.634 240.409Z" fill="#9B9B9C"/>
<path d="M246.493 170.813C244.835 167.81 244.604 163.873 246.639 161.101C247.645 164.68 249.913 167.795 253.04 169.896C254.249 170.702 255.679 171.474 256.093 172.848C256.311 173.723 256.177 174.647 255.718 175.429C255.261 176.2 254.705 176.911 254.063 177.544L254.005 177.759C251.004 176.019 248.15 173.817 246.493 170.813Z" fill="#9B9B9C"/>
<path d="M113.894 220.341C112.237 217.338 112.006 213.401 114.041 210.628C115.047 214.208 117.314 217.323 120.442 219.424C121.651 220.229 123.081 221.002 123.495 222.376C123.712 223.251 123.578 224.175 123.12 224.956C122.663 225.728 122.107 226.439 121.465 227.072L121.406 227.287C118.406 225.546 115.552 223.345 113.894 220.341Z" fill="#9B9B9C"/>
<path d="M97.3197 257.06C95.6624 254.057 95.431 250.12 97.4659 247.348C98.4724 250.927 100.74 254.042 103.867 256.143C105.076 256.949 106.506 257.722 106.92 259.095C107.137 259.97 107.003 260.894 106.545 261.676C106.088 262.447 105.532 263.158 104.89 263.791L104.831 264.006C101.831 262.266 98.977 260.064 97.3197 257.06Z" fill="#9B9B9C"/>
<path d="M131.497 226.234C131.601 225.734 131.813 225.264 132.119 224.855C132.425 224.446 132.816 224.11 133.266 223.869C133.715 223.628 134.212 223.488 134.721 223.46C135.231 223.433 135.74 223.517 136.213 223.707L144.351 214.347L146.08 220.559L138.087 228.495C137.714 229.269 137.071 229.88 136.279 230.212C135.487 230.543 134.601 230.573 133.789 230.294C132.976 230.015 132.294 229.448 131.872 228.7C131.45 227.952 131.316 227.074 131.497 226.234Z" fill="#FFB8B8"/>
<path d="M176.162 182.311C180.868 182.311 184.682 178.493 184.682 173.783C184.682 169.073 180.868 165.254 176.162 165.254C171.456 165.254 167.641 169.073 167.641 173.783C167.641 178.493 171.456 182.311 176.162 182.311Z" fill="#FFB8B8"/>
<path d="M166.153 291.171L161.9 291.171L159.876 274.751L166.154 274.751L166.153 291.171Z" fill="#FFB8B8"/>
<path d="M167.237 295.297L153.524 295.296V295.123C153.524 294.421 153.662 293.726 153.93 293.078C154.198 292.43 154.592 291.841 155.087 291.345C155.583 290.849 156.171 290.455 156.819 290.187C157.467 289.918 158.161 289.78 158.862 289.78L167.238 289.781L167.237 295.297Z" fill="#2F2E41"/>
<path d="M178.989 295.684L174.736 295.684L174.147 279.657L178.99 279.265L178.989 295.684Z" fill="#FFB8B8"/>
<path d="M180.074 299.811L166.361 299.811V299.637C166.361 298.935 166.499 298.241 166.767 297.592C167.035 296.944 167.428 296.355 167.924 295.859C168.42 295.363 169.008 294.97 169.656 294.701C170.303 294.433 170.997 294.294 171.698 294.294L180.074 294.295L180.074 299.811Z" fill="#2F2E41"/>
<path d="M177.78 292.688L174.468 292.298C174.092 292.253 173.746 292.073 173.492 291.792C173.239 291.511 173.096 291.147 173.089 290.769L172.469 247.595C172.467 247.472 172.422 247.355 172.342 247.262C172.263 247.17 172.153 247.108 172.033 247.088C171.912 247.069 171.789 247.092 171.683 247.154C171.578 247.216 171.498 247.313 171.458 247.428L166.863 260.415L167.191 284.756C167.197 285.158 167.048 285.546 166.774 285.84C166.501 286.135 166.125 286.313 165.724 286.337L161.4 286.52C161.005 286.543 160.616 286.415 160.31 286.162C160.005 285.909 159.807 285.551 159.755 285.158L157.496 257.622L157.495 257.605L160.921 228.848L186.656 230.711L179.512 291.32C179.467 291.699 179.285 292.049 178.999 292.303C178.714 292.558 178.345 292.698 177.963 292.699C177.902 292.699 177.84 292.695 177.78 292.688Z" fill="#2F2E41"/>
<path d="M161.031 231.397C160.8 231.274 160.604 231.094 160.461 230.874C160.319 230.655 160.234 230.402 160.214 230.141C160.214 230.141 162.529 215.736 163.377 215.466L161.521 200.062C161.299 198.183 161.454 196.279 161.977 194.461C162.5 192.643 163.381 190.948 164.567 189.475C165.71 188.046 167.13 186.864 168.742 186C170.353 185.135 172.123 184.607 173.945 184.446C174.204 184.423 174.462 184.405 174.719 184.393C176.914 184.275 179.106 184.69 181.107 185.601C183.108 186.513 184.86 187.895 186.213 189.63C187.617 191.379 188.578 193.442 189.014 195.643C189.45 197.844 189.348 200.118 188.718 202.271L187.677 205.896V231.228C187.676 231.475 187.617 231.719 187.505 231.939C187.392 232.159 187.23 232.35 187.031 232.497C183.791 234.877 180.129 235.719 176.57 235.719C169.836 235.719 163.471 232.705 161.031 231.397Z" fill="#48475B"/>
<path d="M141.052 226.761L136.577 223.411C136.401 223.28 136.255 223.113 136.148 222.921C136.041 222.73 135.976 222.518 135.956 222.299C135.937 222.081 135.964 221.86 136.035 221.653C136.106 221.445 136.22 221.255 136.369 221.095L163.034 192.457C163.89 191.546 165.044 190.972 166.287 190.84C167.529 190.708 168.778 191.026 169.806 191.737C170.433 192.174 170.955 192.744 171.337 193.406C171.718 194.068 171.949 194.807 172.012 195.569C172.076 196.33 171.971 197.097 171.706 197.813C171.44 198.53 171.019 199.179 170.474 199.715L143.081 226.625C142.84 226.864 142.528 227.017 142.192 227.062C141.856 227.106 141.515 227.039 141.22 226.871C141.162 226.838 141.106 226.802 141.052 226.761Z" fill="#48475B"/>
<path d="M175.309 222.969C175.505 222.498 175.801 222.075 176.178 221.731C176.554 221.387 177.002 221.129 177.488 220.977C177.975 220.824 178.489 220.78 178.995 220.848C179.5 220.916 179.985 221.094 180.414 221.37L190.157 213.698L190.695 220.124L181.36 226.424C180.85 227.115 180.104 227.595 179.264 227.772C178.424 227.95 177.548 227.812 176.802 227.387C176.056 226.961 175.492 226.276 175.217 225.462C174.942 224.648 174.975 223.761 175.309 222.969Z" fill="#FFB8B8"/>
<path d="M184.03 225.965C183.772 225.884 183.539 225.738 183.355 225.54C183.171 225.342 183.042 225.1 182.981 224.836L181.997 220.699C181.925 220.405 181.94 220.097 182.042 219.812C182.144 219.527 182.327 219.279 182.569 219.097L189.191 211.929L179.451 196.895C178.714 195.987 178.298 194.859 178.269 193.689C178.24 192.519 178.599 191.372 179.29 190.428C179.842 189.676 180.582 189.083 181.435 188.709C182.289 188.335 183.227 188.194 184.153 188.299C185.079 188.405 185.96 188.753 186.708 189.31C187.457 189.866 188.044 190.611 188.412 191.468L197.468 209.11C198.368 210.863 198.593 212.886 198.099 214.794C197.605 216.702 196.427 218.361 194.79 219.456L185.535 225.644C185.252 225.898 184.885 226.038 184.505 226.038C184.344 226.038 184.183 226.013 184.03 225.965Z" fill="#48475B"/>
<path d="M182.476 181.407C182.276 181.527 182.05 181.6 181.816 181.619C181.583 181.638 181.348 181.604 181.131 181.518C180.913 181.431 180.718 181.296 180.56 181.123C180.403 180.949 180.288 180.741 180.224 180.516L180.218 180.495C180.045 179.785 180.182 179.043 180.227 178.313C180.272 177.584 180.196 176.784 179.697 176.251C178.767 175.257 177.125 175.795 175.787 175.549C175.003 175.379 174.308 174.928 173.832 174.281C173.356 173.635 173.132 172.837 173.202 172.037C173.22 171.885 173.249 171.733 173.281 171.581C173.363 171.197 173.354 170.799 173.256 170.418C173.158 170.037 172.973 169.685 172.716 169.388C172.459 169.091 172.137 168.857 171.774 168.706C171.412 168.555 171.019 168.489 170.627 168.515C169.277 168.6 167.821 169.017 166.697 168.022C166.285 167.629 165.998 167.123 165.872 166.568C165.745 166.013 165.784 165.433 165.985 164.9C166.614 163.052 168.412 162.077 170.195 161.537C172.399 160.887 174.721 160.736 176.991 161.096C179.261 161.457 181.422 162.319 183.317 163.62C184.449 164.409 185.507 165.403 185.995 166.695C186.482 167.987 186.259 169.621 185.18 170.481C186.025 171.367 186.622 172.459 186.912 173.649C187.203 174.839 187.175 176.084 186.833 177.259C186.307 178.989 183.761 180.657 182.476 181.407Z" fill="#2F2E41"/>
</g>
<defs>
<clipPath id="clip0_4659_12196">
<rect width="500" height="342" fill="white"/>
</clipPath>
</defs>
</svg>
