<svg width="500" height="379" viewBox="0 0 500 379" fill="none" xmlns="http://www.w3.org/2000/svg">
<g clip-path="url(#clip0_4659_12029)">
<path d="M324.997 89.7432C319.668 80.9283 313.352 71.5159 303.462 68.6375C292.008 65.3042 280.242 71.9262 270.262 78.4605C240.416 98.0022 211.673 119.18 184.166 141.896L184.196 142.239L248.442 137.808C263.915 136.741 279.919 135.526 293.593 128.206C298.781 125.43 303.839 121.718 309.719 121.46C317.023 121.139 323.393 126.241 328.398 131.571C358.007 163.103 366.575 211.322 399.794 239.026C378.847 187.366 353.837 137.448 324.997 89.7432Z" fill="#F2F2F2"/>
<path d="M499.986 345.17H497.054C471.529 312.006 447.512 277.754 425.004 242.414C409.285 217.757 394.347 192.623 380.189 167.011C379.355 165.503 378.523 163.993 377.694 162.48C371.835 151.791 366.113 141.031 360.529 130.199C355.582 120.609 350.748 110.963 346.025 101.262C344.677 98.4889 343.363 95.7086 342.057 92.9153C338.978 86.3571 335.962 79.76 332.717 73.2884C329.444 66.7487 325.537 59.9382 319.979 55.0247C319.265 54.3843 318.518 53.7811 317.742 53.2176C316.862 52.5724 315.938 51.9895 314.976 51.4732C314.88 51.4177 314.782 51.3688 314.684 51.3133C312.336 50.0606 309.75 49.3148 307.096 49.1242C301.571 48.7628 296.477 51.0491 291.682 53.5369C283.593 57.7553 275.627 62.2168 267.784 66.9215C241.724 82.583 217.133 100.568 194.311 120.657L194.138 120.81C164.381 146.943 137.784 176.468 114.889 208.783C114.187 209.784 112.533 208.825 113.242 207.826C116.021 203.886 118.859 199.989 121.755 196.137C143.35 167.399 167.927 141.029 195.075 117.468C198.112 114.827 201.184 112.223 204.29 109.657C219.539 97.0312 235.51 85.3036 252.122 74.5335C257.208 71.2326 262.353 68.0312 267.556 64.9292C271.002 62.8653 274.472 60.8429 277.966 58.862C282.385 56.3603 286.826 53.8863 291.343 51.5718C295.769 49.2922 300.467 47.2491 305.526 47.173C309.171 47.1064 312.771 47.9825 315.978 49.7163C316.074 49.7719 316.18 49.8207 316.277 49.8829C318.237 50.98 320.056 52.31 321.697 53.8442C329.042 60.6476 333.955 71.3223 337.777 79.5159C339.702 83.6509 341.65 87.7678 343.622 91.8665C351.064 107.44 358.796 122.875 366.818 138.171C371.106 146.337 375.475 154.468 379.924 162.564C380.606 163.822 381.3 165.08 381.995 166.331C398.076 195.387 415.166 223.857 433.267 251.741C454.76 284.848 476.109 314.494 499.986 345.17Z" fill="#E4E4E4"/>
<path d="M229.96 234.154C229.96 234.154 226.589 241.987 227.382 243.105C228.175 244.224 217.665 239.375 217.665 239.375C217.665 239.375 221.036 231.542 221.036 230.61C221.036 229.677 229.96 234.154 229.96 234.154Z" fill="#FFB9B9"/>
<path d="M345.732 343.042C345.732 343.042 346.03 336.806 352.13 337.531L345.732 343.042Z" fill="#090814"/>
<path d="M344.011 337.108C345.697 337.108 347.064 335.741 347.064 334.055C347.064 332.368 345.697 331.001 344.011 331.001C342.324 331.001 340.957 332.368 340.957 334.055C340.957 335.741 342.324 337.108 344.011 337.108Z" fill="#0D357D"/>
<path d="M344.375 339.196H343.513V345.23H344.375V339.196Z" fill="#090814"/>
<path d="M138.445 159.712C138.445 161.239 138.396 162.753 138.297 164.255C137.742 172.915 135.554 181.392 131.849 189.239C131.82 189.306 131.786 189.368 131.758 189.43C131.585 189.794 131.408 190.158 131.226 190.517C130.124 192.736 128.902 194.894 127.564 196.979C121.455 206.555 113.081 214.478 103.183 220.048C93.2847 225.619 82.1668 228.665 70.8117 228.919L71.4962 268.288L80.4237 263.587L82.0177 266.617L71.5632 272.122L72.8413 345.24L72.8557 346.216L65.953 347.753L65.9674 346.772L68.1406 228.923C59.0008 228.792 49.9782 226.847 41.5964 223.2C33.2147 219.553 25.6409 214.277 19.3148 207.678C18.8792 207.228 18.4484 206.764 18.0272 206.305C18.008 206.285 17.9937 206.266 17.9793 206.252C12.7085 200.504 8.44581 193.907 5.37078 186.74C5.43779 186.816 5.50959 186.888 5.57661 186.965C-1.37302 170.713 -1.84433 152.418 4.25924 135.829C10.3628 119.241 22.5791 105.615 38.4048 97.7434C38.6441 97.6237 38.8882 97.5088 39.1276 97.3892C54.782 89.8484 72.6981 88.4648 89.3247 93.5125C105.951 98.5602 120.075 109.671 128.895 124.642C129.316 125.35 129.723 126.073 130.116 126.801C135.595 136.904 138.459 148.218 138.445 159.712Z" fill="#E5E5E5"/>
<path d="M129.127 189.467C179.235 189.467 219.856 148.844 219.856 98.7337C219.856 48.6228 179.235 8 129.127 8C79.0181 8 38.3972 48.6228 38.3972 98.7337C38.3972 148.844 79.0181 189.467 129.127 189.467Z" fill="#0D357D"/>
<path opacity="0.2" d="M62.135 38.1309C42.4376 84.2112 63.8214 137.537 109.9 157.237C127.382 164.711 146.77 166.504 165.326 162.364C183.883 158.224 200.67 148.359 213.317 134.163C193.621 180.245 140.299 201.634 94.2207 181.938C48.1426 162.242 26.753 108.916 46.448 62.8355C50.3064 53.8072 55.6045 45.465 62.1354 38.1342L62.135 38.1309Z" fill="black"/>
<path d="M134.036 351.501L124.769 348.902L124.788 347.906L127.565 196.979L127.703 189.454L127.708 189.234L128.192 162.867L128.895 124.647V124.642L129.374 98.7344H129.628L130.116 126.801L130.753 163.331L131.207 189.253V189.445L131.227 190.512V190.517L132.107 241.044L132.198 246.066L134.017 350.496L134.036 351.501Z" fill="#090814"/>
<path d="M143.806 234.884L128.809 242.78L130.899 246.751L145.896 238.854L143.806 234.884Z" fill="#090814"/>
<path d="M127.35 369.767H84.5686V370.724H127.35V369.767Z" fill="#CBCBCB"/>
<path d="M327.918 373.596H285.137V374.554H327.918V373.596Z" fill="#CBCBCB"/>
<path d="M436.115 332.901V305.053C436.115 305.053 446.967 324.796 436.115 332.901Z" fill="#F1F1F1"/>
<path d="M309.048 334.636L288.534 315.803C288.534 315.803 310.417 321.16 309.048 334.636Z" fill="#F1F1F1"/>
<path d="M96.3208 341.343V313.495C96.3208 313.495 107.173 333.238 96.3208 341.343Z" fill="#F1F1F1"/>
<path d="M96.9908 341.338L76.4773 322.505C76.4773 322.505 98.3599 327.862 96.9908 341.338Z" fill="#F1F1F1"/>
<path d="M170.038 361.448V326.819C170.038 326.819 183.533 351.37 170.038 361.448Z" fill="#F1F1F1"/>
<path d="M170.871 361.442L145.362 338.023C145.362 338.023 172.574 344.685 170.871 361.442Z" fill="#F1F1F1"/>
<path d="M389.319 357.212L389.055 358.136L308.718 335.254L248.198 348.595L170.799 361.817L170.694 361.788L134.036 351.501L124.769 348.902L96.4644 340.955L72.8557 346.216L65.9531 347.753L50.9463 351.099L50.7405 350.165L65.9674 346.771L72.8413 345.24L96.4931 339.969L96.608 339.998L124.788 347.906L134.017 350.496L170.847 360.836L248.011 347.657L308.746 334.268L308.866 334.296L389.319 357.212Z" fill="#CBCBCB"/>
<path d="M245.591 66.1326L251.716 61.234C246.958 60.7074 245.003 63.3039 244.201 65.3581C240.484 63.8147 236.437 65.8368 236.437 65.8368L248.691 70.2859C248.073 68.6345 246.997 67.1936 245.589 66.1321L245.591 66.1326Z" fill="#090814"/>
<path d="M401.309 99.1409L407.433 94.2423C402.675 93.7157 400.72 96.3122 399.918 98.3664C396.201 96.823 392.154 98.8451 392.154 98.8451L404.409 103.294C403.79 101.643 402.714 100.202 401.306 99.1404L401.309 99.1409Z" fill="#090814"/>
<path d="M232.188 157.566L238.313 152.667C233.555 152.141 231.6 154.737 230.797 156.791C227.08 155.248 223.034 157.27 223.034 157.27L235.288 161.719C234.67 160.068 233.594 158.627 232.186 157.565L232.188 157.566Z" fill="#090814"/>
<path d="M187.756 368.072L193.632 370.001L204.848 350.888L196.176 348.04L187.756 368.072Z" fill="#A3A3A3"/>
<path d="M237.114 373.126H243.593L244.772 353.864L235.22 354.156L237.114 373.126Z" fill="#A3A3A3"/>
<path d="M213.795 239.533L215.422 236.274L229.271 243.199L228.864 246.051L231.511 249.513C231.511 249.513 234.363 252.14 235.177 260.104L234.363 267.843L233.345 277.823L240.473 302.468L244.139 335.055L246.787 366.444L233.958 365.833L222.145 317.947L199.701 366.868L185.445 363.2L206.667 314.688L209.111 295.543C209.111 295.543 209.111 285.171 215.221 278.434L213.998 274.768V270.251L209.925 248.698L213.795 239.533Z" fill="#090814"/>
<path opacity="0.2" d="M213.414 286.109L212.953 286.239L221.914 318.011L222.375 317.881L213.414 286.109Z" fill="black"/>
<path d="M214.202 279.86H234.161V277.823H214.202V279.86Z" fill="#D6D6E3"/>
<path d="M234.161 281.082C234.611 281.082 234.976 280.17 234.976 279.045C234.976 277.92 234.611 277.008 234.161 277.008C233.711 277.008 233.346 277.92 233.346 279.045C233.346 280.17 233.711 281.082 234.161 281.082Z" fill="#D6D6E3"/>
<path d="M234.687 229.946C237.563 224.685 235.629 218.087 230.368 215.211C225.106 212.334 218.509 214.268 215.633 219.53C212.756 224.792 214.69 231.389 219.952 234.266C225.213 237.142 231.81 235.208 234.687 229.946Z" fill="#FFB9B9"/>
<path d="M234.303 221.722C234.585 224.205 234.04 226.712 232.753 228.854C231.465 230.995 229.508 232.653 227.183 233.569C224.859 234.485 222.297 234.609 219.894 233.922C217.492 233.234 215.384 231.773 213.896 229.766C212.408 227.758 211.624 225.316 211.664 222.818C211.705 220.319 212.569 217.904 214.122 215.946C215.674 213.988 217.829 212.597 220.253 211.988C222.676 211.38 224.842 210.997 227.136 211.988C229.769 211.929 231.775 211.524 233.687 213.138C235.849 214.964 236.491 216.217 238.167 219.217C236.518 219.452 235.952 221.491 234.303 221.722Z" fill="#090814"/>
<path d="M194.393 254.376C194.515 257.594 194.755 263.928 194.755 264.251C194.755 264.592 199.557 274.533 201.631 278.813C201.779 279.114 201.911 279.387 202.029 279.626C202.189 279.958 202.441 280.237 202.755 280.43C203.069 280.623 203.431 280.722 203.8 280.715L212.864 280.553C213.362 280.545 213.837 280.345 214.191 279.995C214.545 279.644 214.75 279.171 214.764 278.674L215.775 238.79C215.778 238.659 215.755 238.528 215.707 238.405C215.659 238.283 215.587 238.171 215.495 238.077C215.404 237.983 215.294 237.908 215.173 237.857C215.051 237.806 214.921 237.779 214.79 237.779H203.1C202.606 237.779 202.123 237.919 201.704 238.181C201.286 238.444 200.95 238.819 200.735 239.263L195.124 250.872C194.598 251.963 194.347 253.166 194.393 254.376Z" fill="#0D357D"/>
<path d="M214.922 275.937C217.248 274.528 219.338 272.761 221.116 270.702C225.246 266.056 227.758 260.196 228.275 254.001C228.736 248.701 227.684 244.762 225.149 242.29C221.926 239.151 217.541 239.607 217.355 239.628L217.159 239.65L214.189 242.164L215.031 243.157L217.69 240.907C218.503 240.867 221.826 240.86 224.253 243.232C226.487 245.417 227.405 249.002 226.982 253.887C226.49 259.786 224.105 265.367 220.181 269.798C218.488 271.756 216.504 273.442 214.298 274.796L214.922 275.937Z" fill="#0D357D"/>
<path d="M198.051 260.784L197.964 261.209L213.811 264.459L213.898 264.034L198.051 260.784Z" fill="#090814"/>
<path d="M208.498 237.772L207.464 262.973L207.897 262.99L208.932 237.79L208.498 237.772Z" fill="#090814"/>
<path d="M194.393 254.376C194.515 257.594 194.755 263.928 194.755 264.251C194.755 264.592 199.557 274.533 201.631 278.813L197.765 256.361C197.615 255.497 197.239 254.689 196.674 254.018C196.11 253.348 195.377 252.839 194.552 252.544C194.422 253.146 194.368 253.761 194.393 254.376Z" fill="#090814"/>
<path d="M218.148 301.427C217.806 300.986 217.565 300.475 217.442 299.93C217.318 299.386 217.316 298.821 217.434 298.275C217.553 297.729 217.79 297.216 218.128 296.772C218.467 296.328 218.898 295.963 219.393 295.704L218.607 287.011L223.773 285.245L224.71 297.536C225.09 298.396 225.141 299.364 224.855 300.259C224.569 301.153 223.965 301.912 223.157 302.391C222.349 302.87 221.394 303.037 220.472 302.859C219.549 302.682 218.724 302.172 218.152 301.427H218.148Z" fill="#FFB7B7"/>
<path d="M214.767 248.961C214.666 247.641 215.007 246.325 215.737 245.22C216.467 244.116 217.544 243.286 218.798 242.861C219.904 242.496 221.098 242.497 222.203 242.864C223.386 243.267 224.412 244.031 225.136 245.049C225.86 246.067 226.247 247.287 226.24 248.536L226.627 292.684L217.473 293.015L214.767 248.961Z" fill="#F2F2F2"/>
<path d="M242.69 371.161C242.69 371.161 237.774 371.223 236.89 371.003C236.006 370.783 234.811 378.491 237.442 378.871C240.073 379.251 250.788 379.347 250.788 379.347C250.788 379.347 259.12 378.48 258.386 376.272C257.652 374.064 246.106 370.357 246.106 370.357C246.106 370.357 244.469 367.647 242.69 371.161Z" fill="#090814"/>
<path d="M192.957 369.091C192.957 369.091 188.218 367.795 187.43 367.34C186.641 366.884 183.367 373.959 185.79 375.05C188.213 376.141 198.479 379.188 198.479 379.188C198.479 379.188 206.722 380.654 206.626 378.33C206.53 376.007 196.46 369.261 196.46 369.261C196.46 369.261 195.636 366.206 192.957 369.091Z" fill="#090814"/>
</g>
<defs>
<clipPath id="clip0_4659_12029">
<rect width="500" height="379" fill="white"/>
</clipPath>
</defs>
</svg>
