<svg width="500" height="387" viewBox="0 0 500 387" fill="none" xmlns="http://www.w3.org/2000/svg">
<g clip-path="url(#clip0_4490_18239)">
<path d="M440.573 219.647L451.507 208.71C450.51 201.46 449.106 194.272 447.3 187.18L441.068 190.333L446.667 184.733C444.346 175.986 442.256 170.34 442.256 170.34C442.256 170.34 420.22 192.775 408.831 219.082L415.888 237.628L406.233 225.706C405.132 228.819 404.228 231.998 403.526 235.224C396.558 267.776 401.544 296.44 414.662 299.246C427.78 302.053 444.063 277.939 451.032 245.387C453.192 235.296 453.168 224.249 452.109 213.809L440.573 219.647Z" fill="#E6E6E6"/>
<path d="M473.065 242.363L488.08 238.651C490.976 231.93 493.49 225.051 495.611 218.046L488.647 217.526L496.334 215.625C498.871 206.938 500 201.024 500 201.024C500 201.024 469.537 208.842 446.185 225.478L442.637 245L440.536 229.805C437.984 231.901 435.567 234.155 433.298 236.554C410.501 260.819 399.949 287.933 409.727 297.114C419.506 306.296 445.913 294.068 468.709 269.803C475.776 262.28 481.468 252.812 485.959 243.327L473.065 242.363Z" fill="#E6E6E6"/>
<path d="M329.764 107.517L333.452 78.5752C323.593 68.9043 313.195 59.7969 302.31 51.2966L296.651 63.1949L298.54 48.3765C284.975 37.9992 275.335 31.9858 275.335 31.9858C275.335 31.9858 268.355 90.901 281.738 143.309L313.687 162.844L285.51 156.194C287.461 162.11 289.783 167.898 292.461 173.524C319.653 230.149 360.196 267.175 383.016 256.223C405.836 245.271 402.291 190.489 375.099 133.863C366.669 116.309 353.877 99.8497 340.239 85.4907L329.764 107.517Z" fill="#E6E6E6"/>
<path d="M404.491 103.92L422.614 81.05C419.174 67.6763 414.982 54.5071 410.059 41.6054L399.063 48.8667L408.341 37.1575C402.095 21.2645 396.952 11.1353 396.952 11.1353C396.952 11.1353 360.515 57.9625 344.873 109.742L362.123 142.974L341.44 122.721C340.051 128.794 339.046 134.948 338.43 141.148C332.429 203.673 347.991 256.32 373.189 258.736C398.386 261.153 423.678 212.426 429.678 149.9C431.539 130.517 429.098 109.816 424.848 90.477L404.491 103.92Z" fill="#E6E6E6"/>
<path d="M70.4124 111.771L68.5792 81.4028C56.6021 73.4051 44.1833 66.0892 31.382 59.4898L27.8917 72.777L26.9532 57.2286C11.043 49.2254 0 44.9326 0 44.9326C0 44.9326 4.27376 106.647 28.1485 157.749L64.6702 171.572L34.5111 170.219C37.6577 175.903 41.1589 181.383 44.9938 186.628C83.8345 239.374 132.553 269.451 153.809 253.808C175.066 238.165 160.811 182.724 121.97 129.977C109.929 113.626 93.6314 99.2412 76.8738 87.1727L70.4124 111.771Z" fill="#E6E6E6"/>
<path d="M146.278 93.602L160.411 66.6585C154.293 53.6229 147.444 40.9427 139.898 28.6783L130.04 38.2491L137.276 24.454C127.794 9.38126 120.561 0 120.561 0C120.561 0 92.3093 55.0391 86.3249 111.122L110.442 141.827L85.3239 125.084C85.0788 131.576 85.2423 138.077 85.8136 144.548C91.7904 209.772 117.944 260.695 144.229 258.288C170.514 255.881 186.977 201.055 181 135.83C179.147 115.61 172.633 94.8747 164.528 75.884L146.278 93.602Z" fill="#E6E6E6"/>
<path d="M225.342 366.239C235.635 366.239 243.979 363.856 243.979 360.916C243.979 357.976 235.635 355.593 225.342 355.593C215.049 355.593 206.705 357.976 206.705 360.916C206.705 363.856 215.049 366.239 225.342 366.239Z" fill="#E6E6E6"/>
<path d="M428.217 387C438.51 387 446.854 384.617 446.854 381.677C446.854 378.737 438.51 376.354 428.217 376.354C417.924 376.354 409.58 378.737 409.58 381.677C409.58 384.617 417.924 387 428.217 387Z" fill="#E6E6E6"/>
<path d="M467.088 343.35C477.381 343.35 485.725 340.966 485.725 338.026C485.725 335.086 477.381 332.703 467.088 332.703C456.795 332.703 448.451 335.086 448.451 338.026C448.451 340.966 456.795 343.35 467.088 343.35Z" fill="#E6E6E6"/>
<path d="M390.677 327.912C398.471 327.912 404.788 326.108 404.788 323.882C404.788 321.656 398.471 319.851 390.677 319.851C382.884 319.851 376.567 321.656 376.567 323.882C376.567 326.108 382.884 327.912 390.677 327.912Z" fill="#E6E6E6"/>
<path d="M85.0337 324.11C90.1801 324.11 94.3521 322.816 94.3521 321.22C94.3521 319.624 90.1801 318.33 85.0337 318.33C79.8873 318.33 75.7153 319.624 75.7153 321.22C75.7153 322.816 79.8873 324.11 85.0337 324.11Z" fill="#E6E6E6"/>
<path d="M48.2925 356.581C53.4389 356.581 57.6109 355.287 57.6109 353.692C57.6109 352.096 53.4389 350.802 48.2925 350.802C43.1461 350.802 38.9741 352.096 38.9741 353.692C38.9741 355.287 43.1461 356.581 48.2925 356.581Z" fill="#E6E6E6"/>
<path d="M48.2925 305.478C53.4389 305.478 57.6109 304.184 57.6109 302.589C57.6109 300.993 53.4389 299.699 48.2925 299.699C43.1461 299.699 38.9741 300.993 38.9741 302.589C38.9741 304.184 43.1461 305.478 48.2925 305.478Z" fill="#E6E6E6"/>
<path d="M447.318 311.918L357.031 308.724L309.416 313.265L228.069 321.021L197.457 323.938L126.563 347.573C126.278 347.668 125.972 347.68 125.681 347.608C125.39 347.537 125.125 347.384 124.917 347.168C124.709 346.951 124.567 346.681 124.507 346.387C124.446 346.093 124.471 345.788 124.577 345.508L124.582 345.502L136.877 312.993L135.583 312.041L101.749 287.186L101.568 287.053L57.6971 280.367C57.0795 280.272 56.4961 280.022 56.0022 279.639C55.5082 279.257 55.1198 278.755 54.8736 278.181C54.6275 277.607 54.5317 276.979 54.5953 276.358C54.6588 275.736 54.8797 275.141 55.237 274.629L122.053 178.778L157.164 128.421L160.972 122.954L307.031 120.936L449.634 307.436C449.956 307.856 450.151 308.359 450.197 308.885C450.244 309.412 450.139 309.941 449.897 310.411C449.654 310.88 449.283 311.271 448.826 311.538C448.37 311.805 447.847 311.937 447.318 311.918Z" fill="#395994"/>
<path opacity="0.2" d="M195.186 130.732L135.582 312.041L101.752 287.186L122.054 178.78L157.064 128.3L157.163 128.418L195.186 130.732Z" fill="black"/>
<path d="M141.982 200.188C135.219 216.442 132.824 230.018 124.802 227.567C113.819 224.211 125.351 212.339 132.114 196.085C138.877 179.831 143.656 167.363 149.294 168.707C159.804 171.211 148.745 183.935 141.982 200.188Z" fill="#3F3D56"/>
<path d="M157.305 167.654C157.303 166.578 157.09 165.513 156.676 164.52C156.263 163.527 155.658 162.625 154.896 161.866C154.134 161.106 153.229 160.504 152.235 160.094C151.24 159.684 150.174 159.474 149.098 159.476C148.913 159.476 148.73 159.485 148.549 159.497L140.817 158.543C139.929 158.227 138.994 158.067 138.052 158.069C137.792 158.069 137.535 158.083 137.281 158.107L136.983 158.071L136.975 158.143C135.161 158.387 133.48 159.231 132.201 160.541C130.923 161.851 130.12 163.551 129.92 165.37C129.721 167.19 130.137 169.024 131.102 170.579C132.067 172.135 133.525 173.322 135.244 173.953L135.228 174.1L135.989 174.185C136.671 174.363 137.373 174.453 138.078 174.451C138.157 174.451 138.234 174.447 138.312 174.445L146.216 175.33C147.145 175.682 148.131 175.86 149.124 175.858C149.495 175.857 149.865 175.831 150.232 175.78L150.906 175.855L150.91 175.658C152.727 175.249 154.351 174.233 155.513 172.778C156.676 171.323 157.308 169.516 157.305 167.654Z" fill="#395994"/>
<path opacity="0.2" d="M157.305 167.654C157.303 166.578 157.09 165.513 156.676 164.52C156.263 163.527 155.658 162.625 154.896 161.866C154.134 161.106 153.229 160.504 152.235 160.094C151.24 159.684 150.174 159.474 149.098 159.476C148.913 159.476 148.73 159.485 148.549 159.497L140.817 158.543C139.929 158.227 138.994 158.067 138.052 158.069C137.792 158.069 137.535 158.083 137.281 158.107L136.983 158.071L136.975 158.143C135.161 158.387 133.48 159.231 132.201 160.541C130.923 161.851 130.12 163.551 129.92 165.37C129.721 167.19 130.137 169.024 131.102 170.579C132.067 172.135 133.525 173.322 135.244 173.953L135.228 174.1L135.989 174.185C136.671 174.363 137.373 174.453 138.078 174.451C138.157 174.451 138.234 174.447 138.312 174.445L146.216 175.33C147.145 175.682 148.131 175.86 149.124 175.858C149.495 175.857 149.865 175.831 150.232 175.78L150.906 175.855L150.91 175.658C152.727 175.249 154.351 174.233 155.513 172.778C156.676 171.323 157.308 169.516 157.305 167.654Z" fill="white"/>
<path d="M47.8773 279.552L46.9309 279.055C71.1719 232.866 139.734 134.177 140.424 133.186L141.301 133.796C140.612 134.786 72.0874 233.421 47.8773 279.552Z" fill="#3F3D56"/>
<path d="M122.131 348.773L121.1 348.492C121.599 346.656 171.252 164.579 188.491 133.864L189.423 134.387C172.248 164.988 122.63 346.938 122.131 348.773Z" fill="#3F3D56"/>
<path d="M453.837 313.472C427.366 269.879 327.401 134.868 326.394 133.509L327.253 132.874C328.26 134.232 428.254 269.283 454.75 312.918L453.837 313.472Z" fill="#3F3D56"/>
<path d="M120.206 353.619C122.272 353.616 123.944 351.46 123.939 348.805C123.935 346.15 122.257 344 120.191 344.003C118.125 344.007 116.454 346.162 116.458 348.817C116.462 351.473 118.141 353.622 120.206 353.619Z" fill="#3F3D56"/>
<path d="M48.1203 281.617C50.1862 281.614 51.8574 279.459 51.8532 276.803C51.8489 274.148 50.1707 271.998 48.1048 272.001C46.039 272.005 44.3677 274.16 44.372 276.815C44.3763 279.471 46.0545 281.62 48.1203 281.617Z" fill="#3F3D56"/>
<path d="M454.828 315.872C456.894 315.868 458.565 313.713 458.561 311.058C458.556 308.402 456.878 306.252 454.812 306.256C452.747 306.259 451.075 308.414 451.08 311.07C451.084 313.725 452.762 315.875 454.828 315.872Z" fill="#3F3D56"/>
<path d="M136.27 138.489L337.878 140.648C337.738 124.187 331.096 108.449 319.401 96.8611C307.705 85.2735 291.902 78.776 275.436 78.7842L198.495 78.9079C166.312 78.9597 139.062 104.12 136.457 136.187L136.27 138.489Z" fill="#3F3D56"/>
<path opacity="0.2" d="M313.41 205.112H239.726C238.828 205.111 237.94 205.289 237.112 205.634C236.284 205.979 235.533 206.486 234.902 207.124C234.272 207.761 233.774 208.518 233.438 209.35C233.103 210.182 232.936 211.072 232.947 211.969L233.011 217.356L233.666 275.028L233.677 276.14L233.698 277.977L233.719 279.771L233.842 290.582C233.862 292.342 234.565 294.024 235.803 295.275C237.041 296.525 238.717 297.246 240.476 297.284C240.657 297.284 240.844 297.279 241.03 297.268L258.527 296.204L283.842 294.66L292.777 294.117L294.768 293.994L308.692 293.148H308.698L313.82 292.834C315.543 292.727 317.161 291.968 318.344 290.711C319.527 289.454 320.187 287.794 320.189 286.068V211.889C320.187 210.092 319.472 208.37 318.201 207.099C316.93 205.829 315.207 205.114 313.41 205.112Z" fill="black"/>
<path d="M328.584 195.693C328.317 195.714 328.059 195.794 327.827 195.927C327.595 196.06 327.395 196.243 327.242 196.462L319.124 196.475V194.322C319.122 192.526 318.407 190.803 317.136 189.533C315.865 188.262 314.142 187.548 312.345 187.546H238.66C237.763 187.545 236.875 187.722 236.047 188.068C235.219 188.413 234.468 188.919 233.837 189.557C233.207 190.195 232.709 190.952 232.373 191.784C232.038 192.615 231.871 193.505 231.882 194.402L231.908 196.615L226.672 196.624C226.385 196.318 225.991 196.136 225.573 196.114C223.737 196.117 222.256 200.124 222.264 205.063C222.272 210.003 223.766 214.005 225.601 214.002C225.921 213.967 226.228 213.856 226.495 213.677C226.763 213.499 226.984 213.259 227.139 212.977L327.269 212.816C327.423 213.035 327.623 213.217 327.855 213.349C328.087 213.481 328.346 213.56 328.613 213.581C330.448 213.578 331.929 209.571 331.921 204.632C331.913 199.692 330.419 195.69 328.584 195.693Z" fill="#395994"/>
<path opacity="0.2" d="M328.584 195.693C328.317 195.714 328.059 195.794 327.827 195.927C327.595 196.06 327.395 196.243 327.243 196.462L319.124 196.475V194.322C319.122 192.526 318.407 190.803 317.136 189.533C315.865 188.262 314.142 187.548 312.345 187.546H238.661C237.763 187.545 236.875 187.722 236.047 188.068C235.219 188.413 234.468 188.919 233.837 189.557C233.207 190.195 232.709 190.952 232.373 191.784C232.038 192.615 231.871 193.505 231.882 194.402L231.908 196.615L226.672 196.624C226.385 196.318 225.991 196.136 225.573 196.114C223.737 196.117 222.256 200.124 222.264 205.063C222.272 210.003 223.766 214.005 225.601 214.002C225.921 213.967 226.228 213.856 226.495 213.677C226.763 213.499 226.984 213.259 227.139 212.977L327.269 212.816C327.423 213.035 327.623 213.217 327.855 213.349C328.087 213.481 328.346 213.56 328.613 213.581C330.448 213.578 331.929 209.571 331.921 204.632C331.913 199.692 330.419 195.69 328.584 195.693Z" fill="white"/>
<path d="M320.335 308.779C319.847 309.235 319.261 309.573 318.621 309.765C317.981 309.956 317.305 309.998 316.647 309.885C315.989 309.773 315.365 309.509 314.825 309.116C314.286 308.723 313.844 308.21 313.536 307.617L309.53 299.928L311.123 296.476L319.711 301.971C320.267 302.326 320.734 302.804 321.077 303.368C321.42 303.931 321.629 304.566 321.689 305.222C321.75 305.879 321.659 306.541 321.424 307.157C321.19 307.774 320.817 308.329 320.335 308.779Z" fill="#FFB8B8"/>
<path d="M337.64 353.642C337.545 352.753 337.121 351.932 336.452 351.34C335.783 350.747 334.917 350.425 334.024 350.438C333.21 350.432 332.417 350.7 331.774 351.199C331.131 351.698 330.674 352.398 330.476 353.188L326.928 370.41C326.811 370.914 326.75 371.429 326.747 371.946C326.747 375.83 329.998 378.529 334.024 378.529C338.049 378.529 341.302 375.83 341.302 371.946C341.3 371.324 341.216 370.704 341.051 370.104L337.64 353.642Z" fill="#3F3D56"/>
<path d="M364.475 361.345C364.114 361.029 363.726 360.745 363.315 360.497L349.762 351.028C348.442 350.2 347.033 350.224 346.01 351.223C345.563 351.648 345.279 352.216 345.208 352.829C345.137 353.441 345.283 354.059 345.62 354.575L355.854 368.021C356.087 368.347 356.348 368.653 356.633 368.935C358.407 370.917 362.341 371.026 364.503 368.935C366.635 366.809 366.61 363.021 364.475 361.345Z" fill="#3F3D56"/>
<path d="M374.661 347.318H360.934C360.494 347.301 360.065 347.459 359.741 347.757C359.417 348.055 359.223 348.469 359.203 348.908C359.196 349.314 359.325 349.71 359.569 350.033C359.814 350.357 360.16 350.589 360.552 350.693L373.501 354.698C375.382 355.136 377.916 353.46 377.916 351.368C377.916 348.706 376.434 347.318 374.661 347.318Z" fill="#3F3D56"/>
<path d="M309.344 348.901C309.329 348.675 309.27 348.454 309.169 348.251C309.069 348.048 308.928 347.867 308.757 347.719C308.585 347.571 308.386 347.458 308.17 347.388C307.955 347.318 307.728 347.292 307.502 347.311H293.775C292.046 347.311 290.588 349.177 290.588 351.27C290.588 353.363 293.048 355.137 294.935 354.698L308.079 350.694C308.473 350.602 308.82 350.369 309.053 350.038C309.286 349.707 309.39 349.303 309.344 348.901Z" fill="#3F3D56"/>
<path d="M318.765 351.044L305.207 360.472C304.786 360.709 304.394 360.993 304.038 361.32C303.041 362.247 302.453 363.531 302.404 364.891C302.355 366.251 302.848 367.575 303.775 368.571C303.859 368.662 303.947 368.75 304.038 368.834C305.101 369.838 306.509 370.398 307.971 370.398C309.434 370.398 310.842 369.838 311.905 368.834C312.195 368.557 312.456 368.251 312.685 367.922L322.926 354.552C323.269 354.042 323.419 353.427 323.347 352.817C323.276 352.208 322.988 351.644 322.536 351.227C322.031 350.756 321.375 350.479 320.684 350.445C319.994 350.412 319.313 350.624 318.765 351.044Z" fill="#3F3D56"/>
<path d="M339.853 332.619C340.01 332.388 340.097 332.116 340.104 331.837C340.104 330.186 336.851 329.039 332.826 329.039C328.8 329.039 325.549 330.186 325.549 331.837C325.555 332.066 325.617 332.29 325.73 332.489L329.278 339.809C329.684 340.499 331.15 340.982 332.826 340.977C334.714 340.977 336.284 340.38 336.441 339.616L339.853 332.619Z" fill="#3F3D56"/>
<path d="M363.305 333.116C361.143 332.228 357.209 332.274 355.436 333.116C355.167 333.228 354.907 333.358 354.656 333.505L344.422 339.219C343.726 339.672 343.89 340.271 344.812 340.644C346.023 341.063 347.336 341.092 348.564 340.727L362.118 336.702C362.51 336.603 362.898 336.483 363.278 336.342C365.412 335.63 365.437 334.02 363.305 333.116Z" fill="#3F3D56"/>
<path d="M376.718 340.582C376.718 339.692 374.184 338.98 372.302 339.167L359.353 340.868C358.579 340.977 358.004 341.229 358.004 341.627C358.004 342.025 358.848 342.303 359.735 342.303H373.462C375.236 342.303 376.718 341.713 376.718 340.582Z" fill="#3F3D56"/>
<path d="M306.881 340.869L293.737 339.167C291.85 338.98 289.39 339.734 289.39 340.623C289.39 341.513 290.848 342.306 292.577 342.306H306.304C307.259 342.306 308.146 342.045 308.146 341.631C308.146 341.216 307.736 340.977 306.881 340.869Z" fill="#3F3D56"/>
<path d="M321.338 340.642C322.298 340.263 322.411 339.691 321.728 339.229L311.487 333.547C311.238 333.397 310.977 333.267 310.707 333.159C308.159 332.273 305.387 332.273 302.84 333.159C302.749 333.195 302.661 333.232 302.577 333.271C300.646 334.153 300.764 335.532 302.84 336.353C303.221 336.499 303.612 336.619 304.009 336.713L317.567 340.72C318.801 341.086 320.12 341.059 321.338 340.642Z" fill="#3F3D56"/>
<path d="M360.744 331.434C360.744 352.601 348.944 352.993 334.388 352.993C319.831 352.993 295.933 348.805 308.031 331.434C320.791 313.113 342.682 278.191 334.388 276.341C334.388 276.341 360.744 310.268 360.744 331.434Z" fill="#F9A825"/>
<path opacity="0.5" d="M343.67 344.459C343.67 352.838 338.999 352.992 333.237 352.992C327.475 352.992 318.015 351.335 322.804 344.459C327.855 337.207 336.52 323.383 333.237 322.651C333.237 322.651 343.67 336.081 343.67 344.459Z" fill="#FF6584"/>
<path d="M320.188 282.283V286.068C320.186 287.794 319.527 289.454 318.344 290.711C317.161 291.968 315.543 292.727 313.82 292.834L241.03 297.268C240.113 297.324 239.195 297.194 238.33 296.884C237.466 296.574 236.673 296.092 236.001 295.467C235.329 294.842 234.791 294.086 234.419 293.246C234.048 292.407 233.852 291.5 233.841 290.582L233.666 275.028L277.697 274.314L320.188 282.283Z" fill="#3F3D56"/>
<path d="M308.319 301.031L275.48 283.98C275.329 283.901 275.196 283.791 275.09 283.657C274.984 283.523 274.908 283.369 274.867 283.203L267.744 254.501C267.331 252.836 267.554 251.076 268.37 249.567C269.186 248.057 270.536 246.906 272.156 246.339L273.872 245.739C274.255 245.605 274.661 245.551 275.065 245.581C275.469 245.61 275.863 245.722 276.222 245.91C276.582 246.097 276.898 246.357 277.153 246.672C277.408 246.987 277.596 247.351 277.704 247.741L284.725 273.01C284.791 273.247 284.928 273.457 285.117 273.614L311.873 295.777C312.103 295.968 312.254 296.238 312.296 296.535C312.338 296.832 312.267 297.134 312.098 297.381L309.865 300.643C309.699 300.885 309.45 301.059 309.166 301.13C308.881 301.201 308.58 301.166 308.319 301.031Z" fill="#E6E6E6"/>
<path d="M286.686 256.378C270.759 247.996 254.087 243.786 236.217 246.288C241.603 237.161 245.604 228.723 245.337 222.407C245.222 220.377 245.606 218.35 246.457 216.503C247.308 214.656 248.598 213.046 250.216 211.814C252.819 209.885 255.974 208.844 259.214 208.845C262.108 207.556 265.386 207.425 268.373 208.481C269.641 208.959 270.793 209.698 271.756 210.651C272.718 211.604 273.469 212.749 273.959 214.011C274.57 215.491 275.885 216.787 277.793 217.929C279.56 218.951 281 220.455 281.944 222.265C283.201 224.765 283.287 227.282 281.64 229.824C287.807 236.301 287.825 246.033 286.686 256.378Z" fill="#2F2E41"/>
<path d="M264.108 235.4C270.269 235.4 275.264 230.407 275.264 224.247C275.264 218.088 270.269 213.094 264.108 213.094C257.946 213.094 252.951 218.088 252.951 224.247C252.951 230.407 257.946 235.4 264.108 235.4Z" fill="#FFB8B8"/>
<path d="M269.42 248.412L256.404 249.74C257.103 242.132 257.378 235.112 256.404 229.824H269.42C266.948 238.243 267.165 244.244 269.42 248.412Z" fill="#FFB8B8"/>
<path d="M276.392 248.124C276.381 249.29 276.357 250.443 276.318 251.584C276.046 259.75 275.018 267.101 272.217 272.515C271.649 273.636 270.969 274.697 270.189 275.682C270.183 275.693 270.176 275.702 270.167 275.709C270.114 275.784 270.055 275.855 269.992 275.922C269.419 276.633 268.783 277.29 268.091 277.886L262.761 283.476L262.516 283.731L260.961 284.769L252.952 290.103L233.719 279.771L233.698 277.977L233.677 276.14C237.952 270.082 240.62 262.204 242.313 253.234C242.777 250.78 243.171 248.241 243.506 245.633C243.735 243.828 243.937 241.986 244.113 240.118C244.14 239.544 244.335 238.991 244.672 238.526C244.672 238.526 244.672 238.525 244.673 238.524C244.673 238.524 244.673 238.523 244.674 238.522C244.674 238.522 244.675 238.522 244.675 238.521C244.676 238.521 244.677 238.521 244.678 238.521C245.498 237.478 247.127 237.499 249.097 237.392C251.861 237.243 254.582 235.811 257.026 237.163C257.087 237.191 257.145 237.223 257.201 237.259L264.374 245.223L267.67 241.672L267.824 241.507L274.614 244.414C275.308 244.714 275.87 245.254 276.197 245.936C276.524 246.618 276.593 247.395 276.392 248.124Z" fill="#E6E6E6"/>
<path d="M261.254 287.266C261.254 288.624 260.997 289.969 260.497 291.232L258.527 296.204L241.03 297.268C240.844 297.279 240.657 297.284 240.476 297.284C238.717 297.246 237.041 296.525 235.803 295.275C234.565 294.024 233.862 292.342 233.842 290.582L233.719 279.771L233.698 277.977L240.066 280.676L246.275 277.343C246.613 277.199 246.96 277.074 247.313 276.971C247.773 276.825 248.243 276.713 248.719 276.635H248.724C248.953 276.598 249.182 276.566 249.411 276.545C252.043 276.281 254.68 276.996 256.818 278.552C258.068 279.457 259.105 280.623 259.859 281.969C259.916 282.062 259.968 282.158 260.013 282.257C260.436 283.05 260.755 283.894 260.961 284.769C261.154 285.587 261.253 286.425 261.254 287.266Z" fill="#2F2E41"/>
<path opacity="0.2" d="M256.271 255.449L258.599 266.125L272.74 278.286L260.256 265.54L256.271 255.449Z" fill="black"/>
<path opacity="0.2" d="M243.256 260.494L247.506 277.755L259.99 282.269L248.303 276.427L243.256 260.494Z" fill="black"/>
<path d="M277.522 224.911C269.299 221.129 260.003 220.051 251.756 224.115L252.818 214.555L270.881 211.634L277.522 224.911Z" fill="#2F2E41"/>
<path d="M343.618 308.915L283.156 298.532L283.897 294.88L343.618 308.915Z" fill="#3F3D56"/>
<path d="M293.241 300.813C292.753 301.269 292.167 301.606 291.527 301.798C290.887 301.99 290.211 302.031 289.553 301.919C288.895 301.806 288.271 301.543 287.731 301.15C287.192 300.756 286.75 300.243 286.442 299.651L282.436 291.962L284.029 288.51L292.617 294.004C293.173 294.36 293.64 294.838 293.983 295.401C294.326 295.965 294.535 296.599 294.595 297.256C294.656 297.913 294.565 298.575 294.33 299.191C294.096 299.808 293.723 300.362 293.241 300.813Z" fill="#FFB8B8"/>
<path d="M281.225 293.065L248.386 276.014C248.235 275.935 248.102 275.825 247.996 275.691C247.891 275.557 247.815 275.402 247.774 275.237L240.65 246.535C240.237 244.87 240.46 243.11 241.276 241.6C242.092 240.091 243.442 238.94 245.062 238.373L246.778 237.773C247.161 237.639 247.567 237.585 247.971 237.614C248.375 237.644 248.769 237.756 249.129 237.943C249.488 238.131 249.805 238.39 250.06 238.705C250.314 239.02 250.502 239.384 250.61 239.775L257.632 265.044C257.697 265.28 257.834 265.491 258.023 265.648L284.779 287.81C285.01 288.002 285.161 288.272 285.202 288.569C285.244 288.866 285.173 289.167 285.004 289.415L282.771 292.677C282.606 292.919 282.357 293.092 282.072 293.164C281.787 293.235 281.486 293.2 281.225 293.065Z" fill="#E6E6E6"/>
<path d="M337.101 310.806C337.391 310.862 337.692 310.802 337.938 310.638C338.184 310.474 338.355 310.219 338.414 309.93L339.02 306.898C339.078 306.608 339.018 306.307 338.854 306.06C338.69 305.814 338.435 305.643 338.144 305.585L329.368 303.831C329.078 303.774 328.777 303.834 328.531 303.998C328.284 304.162 328.113 304.417 328.055 304.707L327.449 307.738C327.42 307.882 327.42 308.03 327.448 308.174C327.477 308.318 327.533 308.454 327.615 308.576C327.696 308.698 327.801 308.803 327.922 308.885C328.044 308.966 328.181 309.023 328.325 309.052L337.101 310.806Z" fill="#E6E6E6"/>
</g>
<defs>
<clipPath id="clip0_4490_18239">
<rect width="500" height="387" fill="white"/>
</clipPath>
</defs>
</svg>
