<svg width="300" height="252" viewBox="0 0 300 252" fill="none" xmlns="http://www.w3.org/2000/svg">
<g clip-path="url(#clip0_5418_11410)">
<path d="M169.757 34.8139C173.428 36.4032 176.869 38.1642 179.987 40.0407C190.89 46.5975 199.661 56.1436 210.375 62.7201C220.492 68.9297 232.847 70.4393 244.424 71.4773C264.604 73.2867 306.693 90.6394 299.093 122.801C296.329 134.506 286.579 142.455 281.587 153.054C276.277 164.329 276.834 178.391 268.379 188.165C264.66 192.463 259.526 195.301 254.255 197.452C219.176 211.756 179.782 211.091 142.586 209.515C113.228 208.27 66.0738 214.848 40.2864 198.786C27.4836 190.811 34.1412 169.011 25.2822 157.303C17.838 147.464 7.70642 141.002 2.72942 128.686C-5.74018 107.73 6.33242 80.4583 27.4704 73.0192C40.6794 68.3707 54.6732 66.2409 67.7304 61.1357C81.2202 55.8592 86.418 47.9563 96.7056 38.6023C115.304 21.695 146.957 24.9399 169.757 34.8139Z" fill="#E7EBF2"/>
<path d="M202.246 201.555H100.419V138.025C100.419 136.824 101.377 135.852 102.557 135.852H200.107C201.289 135.852 202.246 136.824 202.246 138.025V201.555Z" fill="#D3D3D3"/>
<path d="M104.146 140.455H198.52V196.479H104.146V140.455Z" fill="#F2F2F2"/>
<path d="M84.2242 220.467C83.2882 221.688 85.0768 225.336 87.8818 225.336H216.959C219.762 225.336 221.528 221.688 220.455 220.467H84.2242Z" fill="#D3D3D3"/>
<path d="M220.095 219.8C221.168 221.019 219.762 222.009 216.96 222.009H87.8824C85.0774 222.009 83.563 221.019 84.499 219.8L97.714 202.563C98.65 201.342 101.099 200.354 103.186 200.354H199.217C201.301 200.354 203.864 201.342 204.938 202.563C209.988 208.31 215.043 214.053 220.095 219.8Z" fill="#F2F2F2"/>
<g opacity="0.5">
<path d="M113.166 206.167H108.806C109.423 205.256 109.732 204.799 110.348 203.888H114.535L113.166 206.167ZM118.816 206.167H114.457C114.985 205.256 115.249 204.799 115.775 203.888H119.962L118.816 206.167ZM117.011 203.451H110.647L111.221 202.601H117.489L117.011 203.451ZM124.47 203.452L118.104 203.451L118.564 202.601H124.832C124.688 202.941 124.614 203.111 124.47 203.452ZM131.93 203.451H125.563L125.907 202.601H132.178L131.93 203.451ZM139.388 203.451H133.023L133.252 202.601H139.521C139.469 202.941 139.442 203.111 139.388 203.451ZM146.849 203.451H140.482L140.598 202.601H146.865L146.849 203.451ZM154.308 203.451H147.943V202.601H154.21C154.25 202.941 154.267 203.111 154.308 203.451ZM161.768 203.451H155.402L155.286 202.601H161.555C161.639 202.941 161.683 203.111 161.768 203.451ZM169.229 203.451H162.862L162.632 202.601H168.899C169.032 202.941 169.097 203.111 169.229 203.451ZM176.688 203.451H170.323C170.183 203.111 170.114 202.941 169.974 202.601H176.245L176.688 203.451ZM184.147 203.451H177.782C177.598 203.111 177.505 202.941 177.322 202.601H183.587C183.811 202.941 183.922 203.111 184.147 203.451ZM192.47 203.451H185.241L184.665 202.601H191.783C192.058 202.941 192.196 203.111 192.47 203.451ZM124.464 206.167H120.106C120.544 205.256 120.764 204.8 121.201 203.889L125.387 203.888C125.018 204.8 124.834 205.255 124.464 206.167ZM130.113 206.167H125.754C126.104 205.256 126.278 204.799 126.628 203.888L130.814 203.889L130.113 206.167ZM135.763 206.167H131.405C131.665 205.255 131.796 204.8 132.055 203.888H136.241C136.051 204.799 135.953 205.256 135.763 206.167ZM141.412 206.167H137.054C137.224 205.256 137.308 204.798 137.48 203.888H141.668C141.565 204.799 141.512 205.256 141.412 206.167ZM147.058 206.167H142.703L142.907 203.888H147.092C147.08 204.799 147.073 205.256 147.058 206.167ZM152.71 206.167H148.352L148.335 203.888H152.52C152.597 204.799 152.635 205.256 152.71 206.167ZM158.359 206.167H154.002L153.763 203.888H157.946C158.112 204.799 158.194 205.256 158.359 206.167ZM164.006 206.167H159.649C159.465 205.256 159.372 204.799 159.187 203.888H163.373C163.625 204.799 163.752 205.256 164.006 206.167ZM111.34 209.205H106.754L108.293 206.926H112.709L111.34 209.205ZM117.288 209.205H112.7C113.228 208.294 113.492 207.838 114.019 206.926H118.436C117.976 207.838 117.745 208.294 117.288 209.205ZM123.233 209.205H118.646C119.084 208.294 119.302 207.838 119.741 206.926H124.156C123.787 207.838 123.601 208.294 123.233 209.205ZM129.179 209.205H124.591C124.94 208.294 125.115 207.838 125.463 206.926H129.88C129.599 207.838 129.459 208.294 129.179 209.205ZM135.126 209.205H130.539C130.799 208.294 130.928 207.838 131.188 206.928C132.955 206.928 133.837 206.926 135.604 206.926C135.411 207.838 135.317 208.294 135.126 209.205ZM141.07 209.205H136.482L136.91 206.926H141.325C141.224 207.838 141.172 208.294 141.07 209.205ZM147.014 209.205H142.429L142.634 206.926H147.047L147.014 209.205ZM152.962 209.205H148.375L148.358 206.926H152.773C152.848 207.838 152.887 208.294 152.962 209.205ZM158.906 209.205H154.322C154.225 208.294 154.176 207.838 154.082 206.926H158.495L158.906 209.205ZM164.852 209.205H160.266C160.08 208.294 159.987 207.838 159.803 206.926H164.218L164.852 209.205ZM109.516 212.244H104.7C105.315 211.333 105.625 210.876 106.241 209.965L110.885 209.964C110.338 210.875 110.063 211.332 109.516 212.244ZM115.759 212.244H110.944L112.261 209.965H116.906C116.447 210.875 116.217 211.332 115.759 212.244ZM122.002 212.244H117.185L118.28 209.965H122.924L122.002 212.244ZM128.244 212.244H123.426L124.299 209.965H128.945L128.244 212.244ZM134.486 212.244H129.671C129.931 211.333 130.063 210.876 130.321 209.965H134.965C134.775 210.875 134.678 211.332 134.486 212.244ZM140.727 212.244H135.912C136.082 211.333 136.169 210.876 136.34 209.965H140.985L140.727 212.244ZM146.968 212.244H142.155L142.36 209.965H147.002C146.99 210.875 146.983 211.332 146.968 212.244ZM153.215 212.244H148.398C148.393 211.333 148.388 210.876 148.381 209.965H153.025C153.101 210.875 153.138 211.332 153.215 212.244ZM159.456 212.244H154.643C154.546 211.333 154.498 210.876 154.402 209.965H159.044C159.209 210.875 159.292 211.332 159.456 212.244ZM165.697 212.244H160.88C160.697 211.333 160.604 210.876 160.419 209.965H165.063L165.697 212.244ZM107.691 215.28H102.646C103.261 214.369 103.571 213.914 104.187 213.003H109.059C108.604 213.763 108.148 214.522 107.691 215.28ZM114.231 215.28H109.187L110.506 213.003H115.379C114.92 213.914 114.689 214.369 114.231 215.28ZM120.769 215.28H115.725C116.163 214.369 116.383 213.914 116.822 213.003H121.693C121.324 213.914 121.14 214.369 120.769 215.28ZM127.287 215.353H122.234C122.596 214.413 122.775 213.943 123.135 213.004H128.01C127.721 213.942 127.577 214.413 127.287 215.353ZM166.544 215.28H128.803C129.062 214.369 129.191 213.914 129.452 213.003H165.909L166.544 215.28ZM138.647 220.286H167.276L164.866 216.405H140.926L138.647 220.286ZM169.118 206.167H164.76C164.493 205.256 164.361 204.799 164.096 203.888H168.283C168.617 204.798 168.782 205.256 169.118 206.167ZM170.232 209.205H165.643C165.378 208.294 165.246 207.838 164.981 206.926H169.398C169.73 207.838 169.898 208.294 170.232 209.205ZM171.345 212.244H166.529C166.263 211.333 166.132 210.876 165.866 209.965H170.511C170.844 210.875 171.01 211.332 171.345 212.244ZM172.459 215.28H167.414L166.75 213.003H171.623L172.459 215.28ZM174.227 206.167H169.869C169.523 205.256 169.349 204.799 169.004 203.888H173.191C173.605 204.799 173.813 205.256 174.227 206.167ZM175.61 209.205H171.023C170.676 208.294 170.502 207.838 170.158 206.926H174.573C174.987 207.838 175.196 208.294 175.61 209.205ZM176.991 212.244H172.175L171.309 209.965H175.954C176.37 210.875 176.576 211.332 176.991 212.244ZM178.373 215.28H173.327C172.983 214.369 172.809 213.914 172.465 213.003H177.337C177.752 213.914 177.958 214.369 178.373 215.28ZM179.337 206.167H174.979L173.912 203.888H178.1C178.595 204.799 178.843 205.256 179.337 206.167ZM180.987 209.205H176.4L175.333 206.926H179.75C180.244 207.838 180.493 208.294 180.987 209.205ZM182.639 212.244H177.822C177.395 211.333 177.183 210.876 176.755 209.965H181.401L182.639 212.244ZM184.288 215.28H179.243C178.817 214.369 178.604 213.914 178.177 213.003H183.05L184.288 215.28ZM184.446 206.167H180.088L178.822 203.888H183.006C183.584 204.799 183.871 205.256 184.446 206.167ZM186.365 209.205H181.778L180.511 206.926H184.926C185.502 207.838 185.791 208.294 186.365 209.205ZM188.284 212.244H183.469C182.962 211.333 182.71 210.876 182.201 209.965H186.846C187.422 210.875 187.709 211.332 188.284 212.244ZM190.204 215.28H185.158C184.736 214.521 184.314 213.762 183.89 213.003H188.765C189.34 213.914 189.627 214.369 190.204 215.28ZM189.558 206.167H185.198C184.61 205.256 184.316 204.799 183.728 203.888H187.916C188.572 204.799 188.9 205.256 189.558 206.167ZM191.743 209.205H187.155C186.567 208.294 186.274 207.838 185.688 206.926H190.103C190.76 207.838 191.088 208.294 191.743 209.205ZM193.931 212.244H189.113C188.526 211.333 188.234 210.876 187.646 209.965H192.291C192.948 210.875 193.275 211.332 193.931 212.244ZM196.118 215.28H191.071L189.603 213.003H194.478L196.118 215.28ZM194.665 206.167H190.308C189.639 205.256 189.307 204.799 188.636 203.888H192.824C193.56 204.799 193.928 205.256 194.665 206.167ZM197.121 209.205H192.533C191.867 208.294 191.532 207.838 190.865 206.926H195.28L197.121 209.205ZM199.577 212.244H194.761C194.092 211.333 193.759 210.876 193.091 209.965H197.735C198.472 210.875 198.84 211.332 199.577 212.244ZM202.033 215.28H196.986L195.317 213.003H200.191C200.927 213.914 201.295 214.369 202.033 215.28Z" fill="#D3D3D3"/>
</g>
<path d="M170.498 184.932C170.506 184.945 170.716 185.281 171.079 185.938C171.946 187.527 173.679 191.012 175.498 196.464H130.565C130.886 195.163 131.18 194.123 131.438 193.4C131.572 193.029 131.756 192.678 131.985 192.356C132.782 191.231 134.145 190.274 135.901 189.465C137.998 188.498 140.651 187.738 143.56 187.135C146.65 186.503 150.022 186.047 153.305 185.717C153.526 185.697 153.746 185.674 153.968 185.655C157.619 185.315 161.127 185.128 163.957 185.038C167.864 184.903 170.498 184.932 170.498 184.932Z" fill="#0B4870"/>
<path d="M141.078 123.32C140.993 123.895 140.843 124.427 140.63 124.94L140.758 123.491C140.865 123.426 140.972 123.384 141.078 123.32Z" fill="#FFE3CA"/>
<path d="M164.881 121.17V121.189C164.836 121.17 164.793 121.147 164.772 121.147C164.816 121.148 164.836 121.17 164.881 121.17Z" fill="#EEBEA7"/>
<path d="M210.994 151.737C210.994 151.737 213.769 149.171 213.219 147.245C212.753 145.611 213.457 143.78 213.632 143.021C213.869 142.015 213.965 138.748 214.717 138.926C215.991 139.235 215.697 144.449 215.854 145.561C216.011 146.671 219.386 142.952 220.536 142.757C221.689 142.559 227.548 148.482 224.938 150.77C222.328 153.053 218.728 153.979 218.348 154.473C217.968 154.966 216.179 156.321 216.179 156.321L210.994 151.737Z" fill="#F1B99E"/>
<path d="M219.799 143.144C219.799 143.144 228.26 136.679 229.185 136.718C230.113 136.755 230.433 137.236 229.666 137.872C228.903 138.509 221.677 144.359 221.677 144.359C221.677 144.359 232.977 138.383 233.744 138.249C234.189 138.17 234.531 139.025 234.151 139.405C233.773 139.781 223.258 146.381 223.258 146.381C223.258 146.381 233.817 140.819 234.49 140.898C235.081 140.969 235.501 141.94 234.747 142.406C233.991 142.871 224.482 148.587 224.482 148.587C224.482 148.587 232.426 145.024 232.954 145.422C233.275 145.669 233.734 146.21 231.658 147.065C229.579 147.921 225.057 150.653 225.057 150.653L219.799 143.144Z" fill="#F1B99E"/>
<path d="M159.394 115.589V116.164C159.349 116.059 159.307 115.973 159.287 115.866C159.243 115.845 159.243 115.803 159.243 115.78C159.287 115.718 159.329 115.655 159.394 115.589Z" fill="#FFBE55"/>
<path d="M153.032 119.083C152.947 119.103 152.838 119.103 152.754 119.103V119.061C152.838 119.083 152.947 119.083 153.032 119.083ZM159.393 115.589V115.76C159.357 115.795 159.321 115.83 159.287 115.866C159.052 116.122 158.795 116.355 158.539 116.59C158.432 116.676 158.347 116.76 158.241 116.845C158.368 116.719 158.517 116.569 158.648 116.441C158.84 116.25 159.03 116.016 159.243 115.78C159.287 115.718 159.329 115.655 159.393 115.589Z" fill="#EEBEA7"/>
<path d="M164.281 108.243C163.108 110.841 161.677 113.184 160.054 115.037C159.842 115.292 159.605 115.547 159.393 115.76V115.589C159.328 115.655 159.286 115.718 159.242 115.78C159.03 116.016 158.839 116.25 158.647 116.442C158.517 116.57 158.368 116.719 158.241 116.846C158.196 116.868 158.155 116.911 158.113 116.953C158.048 117.016 157.984 117.081 157.919 117.102C157.751 117.249 157.572 117.384 157.385 117.506C157.151 117.677 156.938 117.825 156.704 117.953C156.649 117.991 156.592 118.026 156.533 118.06C156.318 118.187 156.107 118.294 155.916 118.378C155.724 118.481 155.523 118.567 155.316 118.634L155.296 118.656C155.125 118.699 154.996 118.762 154.846 118.805C154.802 118.826 154.762 118.848 154.718 118.848C154.57 118.89 154.42 118.932 154.27 118.954C154.228 118.954 154.207 118.975 154.164 118.975H154.099C153.993 118.998 153.866 119.019 153.759 119.04C153.652 119.06 153.524 119.06 153.418 119.06C153.312 119.083 153.202 119.083 153.117 119.083H153.097C153.076 119.102 153.055 119.102 153.033 119.083C152.948 119.083 152.839 119.083 152.755 119.06V119.102C152.628 119.102 152.499 119.083 152.351 119.06C152.2 119.04 152.03 119.019 151.879 118.998C151.794 118.975 151.711 118.975 151.601 118.954C151.517 118.932 151.431 118.932 151.346 118.89C150.898 118.783 150.473 118.613 150.023 118.378C149.883 118.309 149.747 118.232 149.617 118.146C148.913 117.741 148.229 117.166 147.524 116.441C147.271 116.187 147.035 115.888 146.779 115.589C145.69 114.226 144.603 112.417 143.599 110.118C143.189 109.198 142.804 108.268 142.445 107.327C142.978 108.37 142.049 98.6376 142.263 98.9794C139.361 93.4426 142.253 97.9996 143.281 95.2539C149.704 97.9577 162.189 102.622 162.189 97.8936C162.189 97.8936 162.466 100.769 162.788 103.749C163.043 106.198 163.321 108.734 163.45 109.692C163.45 109.691 163.789 109.158 164.281 108.243Z" fill="#F4C7B1"/>
<path d="M153.032 119.083C152.947 119.103 152.838 119.103 152.754 119.103V119.061C152.838 119.083 152.947 119.083 153.032 119.083ZM159.393 115.589V115.76C159.357 115.795 159.321 115.83 159.287 115.866C159.052 116.122 158.795 116.355 158.539 116.59C158.432 116.676 158.347 116.76 158.241 116.845C158.368 116.719 158.517 116.569 158.648 116.441C158.84 116.25 159.03 116.016 159.243 115.78C159.287 115.718 159.329 115.655 159.393 115.589Z" fill="#EEBEA7"/>
<path d="M142.444 107.327C140.735 103.963 137.982 97.5329 138.474 91.4418V91.4197C137.706 86.3737 144.003 77.2808 153.609 77.7488C163.213 77.2808 169.511 86.3737 168.742 91.4197V91.4418C169.039 95.1255 168.143 98.9156 167.034 102.09C167.738 102.067 168.42 102.152 169.103 102.387C172.925 103.644 174.717 108.605 173.096 113.439C171.495 118.294 167.076 121.189 163.256 119.933C161.483 119.358 160.138 117.975 159.392 116.164V115.76C159.605 115.547 159.842 115.291 160.053 115.036C161.676 113.184 163.107 110.841 164.28 108.243C163.788 109.158 163.49 110.284 163.49 110.284C163.361 109.327 163.041 106.198 162.786 103.749C162.464 100.768 162.187 97.8933 162.187 97.8933C162.187 102.622 149.702 97.9573 143.279 95.2536L142.444 107.327Z" fill="#FFBE55"/>
<path d="M159.393 115.589V116.164C159.393 116.569 159.373 117.059 159.393 117.612C158.774 118.379 158.155 119.019 157.515 119.508C157.299 119.678 157.087 119.828 156.875 119.976C156.713 120.098 156.542 120.204 156.362 120.296H156.341C155.36 120.849 154.377 121.126 153.417 121.147H152.925C152.861 121.147 152.798 121.147 152.754 121.126V119.06C152.838 119.082 152.947 119.082 153.032 119.082C153.054 119.102 153.075 119.102 153.096 119.082H153.116C153.225 119.102 153.311 119.102 153.417 119.102C153.545 119.102 153.694 119.082 153.822 119.06C153.971 119.04 154.143 119.018 154.293 118.997C154.377 118.974 154.461 118.974 154.57 118.954C154.656 118.931 154.74 118.931 154.826 118.889C155.274 118.783 155.7 118.612 156.147 118.377C156.277 118.315 156.428 118.23 156.554 118.145C157.022 117.89 157.471 117.547 157.919 117.1C157.985 117.08 158.048 117.015 158.113 116.951C158.155 116.91 158.196 116.866 158.241 116.844C158.368 116.718 158.517 116.568 158.648 116.44C158.84 116.249 159.03 116.015 159.243 115.779C159.287 115.718 159.329 115.655 159.393 115.589Z" fill="#A5735B"/>
<path d="M152.756 121.126V133.839C152.821 133.861 152.906 133.839 152.971 133.839C154.4 133.818 155.895 133.649 157.216 133.2C157.241 133.2 157.282 133.18 157.302 133.18C159.223 132.519 160.783 131.327 161.272 129.197V129.175C160.526 125.152 159.929 122.597 159.758 121.829H159.458V121.425C159.458 121.17 159.436 120.935 159.436 120.701C159.416 119.934 159.416 119.21 159.395 118.507V117.613C158.776 118.379 158.156 119.019 157.517 119.508C157.319 119.684 157.105 119.841 156.878 119.977C156.716 120.097 156.544 120.204 156.365 120.296H156.344C155.297 120.893 154.273 121.148 153.248 121.148C153.077 121.148 152.906 121.148 152.756 121.126Z" fill="#F4C7B1"/>
<path d="M153.417 119.061V121.127C153.353 121.148 153.311 121.148 153.247 121.148H152.754C151.793 121.127 150.81 120.85 149.828 120.297H149.808C149.628 120.204 149.457 120.098 149.295 119.977C149.077 119.828 148.864 119.671 148.656 119.509C148.016 119.02 147.396 118.379 146.777 117.613C146.798 116.783 146.777 116.08 146.777 115.59C147.034 115.889 147.269 116.188 147.523 116.442C148.228 117.167 148.912 117.743 149.616 118.147C149.744 118.232 149.894 118.318 150.022 118.38C150.472 118.614 150.898 118.785 151.345 118.891C151.43 118.933 151.516 118.933 151.6 118.956C151.71 118.976 151.793 118.976 151.878 118.999C152.029 119.02 152.199 119.042 152.35 119.062C152.497 119.084 152.627 119.104 152.754 119.104C152.838 119.104 152.947 119.104 153.032 119.084C153.053 119.104 153.075 119.104 153.095 119.084H153.116C153.202 119.083 153.311 119.083 153.417 119.061Z" fill="#A5735B"/>
<path d="M146.414 121.829C146.244 122.596 145.645 125.152 144.899 129.176V129.197C145.389 131.326 146.949 132.519 148.871 133.181C148.891 133.181 148.933 133.2 148.956 133.2C150.241 133.636 151.692 133.807 153.085 133.835C154.479 133.807 155.929 133.636 157.215 133.2C157.239 133.2 157.28 133.181 157.301 133.181C159.222 132.519 160.782 131.326 161.271 129.197V129.176C160.525 125.152 159.927 122.596 159.756 121.829H159.798C160.012 122.329 160.198 122.841 160.354 123.362C160.395 123.491 160.46 123.64 160.502 123.789L160.696 124.427C160.782 124.704 160.844 124.98 160.93 125.278C160.999 125.545 161.057 125.816 161.101 126.088C161.398 127.408 161.569 128.835 161.441 130.112V130.134C162.659 136.756 164.217 146.893 165.22 159.329C165.475 162.673 165.305 166.761 164.921 171.212C166.33 170.578 167.747 169.96 169.17 169.357L170.087 180.624L170.921 190.696L162.724 191.059L153.416 191.455V191.483L153.085 191.469L152.755 191.483V191.455L143.447 191.059L135.251 190.696L136.083 180.624L137.001 169.357C138.325 169.913 139.819 170.572 141.25 171.212C140.864 166.761 140.696 162.673 140.951 159.329C141.954 146.893 143.511 136.756 144.728 130.134V130.112C144.602 128.835 144.773 127.408 145.07 126.088C145.112 125.809 145.176 125.534 145.241 125.278C145.327 124.98 145.389 124.704 145.475 124.427L145.668 123.789C145.71 123.64 145.775 123.491 145.817 123.362C145.975 122.842 146.16 122.33 146.373 121.829H146.414Z" fill="#0E538C"/>
<path d="M153.417 121.126V133.839C153.353 133.861 153.266 133.839 153.202 133.839C151.774 133.818 150.278 133.649 148.957 133.2C148.934 133.2 148.892 133.18 148.871 133.18C146.949 132.519 145.389 131.327 144.899 129.197V129.175C145.645 125.152 146.245 122.597 146.414 121.829H146.714V121.425C146.714 121.17 146.736 120.935 146.736 120.701C146.756 119.934 146.756 119.21 146.777 118.507V117.613C147.396 118.379 148.016 119.019 148.656 119.508C148.871 119.701 149.084 119.849 149.295 119.977C149.467 120.105 149.638 120.209 149.808 120.296H149.828C150.875 120.893 151.903 121.148 152.924 121.148C153.096 121.148 153.266 121.148 153.417 121.126Z" fill="#F4C7B1"/>
<path d="M159.307 177.493C159.158 178.43 158.539 179.133 158.539 179.133C158.539 179.133 158.902 180.367 158.07 181.176C158.07 181.176 158.347 182.347 157.259 183.114C157.259 183.114 157.515 184.265 156.66 184.755C156.66 184.755 154.803 184.989 154.122 184.862C151.362 184.235 148.609 183.582 145.861 182.902L147.675 175.299V175.279C148.465 174.747 149.211 174.255 149.447 174.107C150.024 173.765 151.988 173.873 154.013 174.511C155.979 175.129 158.178 176.002 158.796 176.342C159.117 176.513 159.435 176.578 159.307 177.493Z" fill="#EEA886"/>
<path d="M145.873 124.28C145.609 125.518 145.272 127.163 144.899 129.175V129.197C144.836 129.495 144.793 129.793 144.729 130.112V130.134C143.512 136.756 141.955 146.892 140.952 159.328C140.697 162.672 140.865 166.761 141.251 171.212C140.482 170.866 139.711 170.526 138.938 170.189C139.702 170.523 140.486 170.87 141.25 171.212C143.478 172.223 145.698 173.252 147.91 174.299L147.674 175.279V175.3L145.86 182.903L145.583 184.075C145.564 184.068 144.392 183.622 142.527 182.945C142.171 182.816 141.791 182.678 141.39 182.532C141.791 182.678 142.171 182.817 142.526 182.946C142.68 184.342 142.848 185.745 143.012 187.134C143.16 188.453 143.312 189.766 143.447 191.059C143.649 192.906 143.832 194.717 143.976 196.464H130.237C130.65 195.12 131.058 193.74 131.438 192.356C132.661 187.971 133.672 183.519 134.013 179.9C129.167 178.238 124.044 176.515 121.27 175.876C115.229 174.47 111.214 172.213 109.251 170.318C107.31 168.423 113.883 152.624 115.827 149.173C117.748 145.723 120.009 138.184 122.764 131.562C123.564 129.644 124.722 128.272 126.021 127.323C130.979 122.647 139.354 121.766 140.888 121.873V121.83H146.414L145.873 124.28ZM165.286 121.873C166.366 121.798 170.267 121.274 174.21 122.602C174.69 122.68 175.154 122.808 175.601 122.98C176.877 123.477 178.004 124.335 179 125.43C179.008 125.438 179.017 125.445 179.025 125.453C179.023 125.452 179.021 125.451 179.02 125.45C183.921 130.865 185.604 142.047 185.973 144.263C186.136 145.189 186.591 146.742 187.178 148.437C188.473 152.388 190.358 157.154 190.371 157.188C194.177 155.551 195.749 155.084 197.199 154.669C198.252 154.362 199.245 154.111 200.962 153.453C201.48 153.262 202.034 153.039 202.629 152.836C204.082 152.311 205.542 151.802 207.007 151.311C210.63 150.103 213.994 149.053 213.994 149.053L214.488 149.93L214.503 149.946L218.359 156.748L218.955 157.795C218.931 157.804 217.767 158.273 215.947 159.041C214.273 159.747 212.051 160.674 209.643 161.714C208.975 162.011 208.304 162.303 207.631 162.588C202.947 164.661 198.016 166.874 195.547 168.29C190.161 171.359 185.678 172.431 182.947 172.375C181.318 172.331 178.526 166.54 176.349 161.084C176.081 161.859 175.765 162.789 175.424 163.844C175.144 164.653 172.458 178.962 172.159 179.9C172.159 179.902 172.158 179.903 172.157 179.904C172.608 184.662 174.217 190.869 175.934 196.463H162.195C162.339 194.716 162.521 192.905 162.724 191.059C162.929 189.077 163.175 187.062 163.409 185.037C163.487 184.338 163.568 183.643 163.645 182.945C163.645 182.945 163.65 182.945 163.655 182.94L163.656 182.939C164.08 178.055 165.471 162.592 165.221 159.329C164.218 146.893 162.661 136.756 161.443 130.134V130.112C161.378 129.794 161.338 129.496 161.273 129.197V129.176C160.527 125.153 159.929 122.597 159.757 121.829H165.286V121.873ZM134.716 126.089C135.207 126.37 135.659 126.714 136.062 127.111C136.68 127.687 137.187 128.373 137.555 129.134C141.098 136.438 132.135 149.512 130.642 151.771C130.129 152.557 129.402 154.006 128.677 155.646C126.932 159.423 125.06 164.196 125.048 164.227C128.953 165.612 130.426 166.335 131.771 167.016C132.751 167.506 133.649 167.996 135.358 168.679C135.868 168.89 136.425 169.102 137 169.357C137.06 169.382 137.12 169.408 137.181 169.434C137.121 169.408 137.062 169.383 137.002 169.357C136.427 169.102 135.869 168.891 135.359 168.679C133.65 167.996 132.753 167.506 131.772 167.016C131.71 166.846 131.665 166.655 131.601 166.484C131.302 165.547 131.025 164.652 130.748 163.845C129.708 160.63 128.923 158.569 128.912 158.541C128.912 158.541 128.786 157.456 128.679 155.646C129.404 154.006 130.13 152.557 130.643 151.771C132.135 149.512 141.099 136.438 137.556 129.134C137.188 128.373 136.682 127.687 136.063 127.111C135.661 126.714 135.208 126.37 134.717 126.089C134.705 126.081 134.691 126.075 134.679 126.068C134.691 126.076 134.704 126.082 134.716 126.089Z" fill="#0D357D"/>
<path d="M168.022 102.203L167.839 93.8585C167.812 92.4663 167.839 91.0871 167.639 89.796C167.443 88.4863 167.086 87.2042 166.534 86.0172C165.449 83.6379 163.629 81.6297 161.343 80.3559C159.059 79.0624 156.403 78.4746 153.754 78.4853C151.106 78.4746 148.444 79.0624 146.17 80.3559C143.879 81.6297 142.059 83.6379 140.971 86.0172C140.422 87.2036 140.066 88.4863 139.869 89.796C139.67 91.1009 139.69 92.4483 139.672 93.8585L139.484 102.203H138.436L138.257 93.8585C138.24 92.4902 138.177 91.0494 138.362 89.5943C138.544 88.1529 138.899 86.7151 139.485 85.363C140.62 82.6353 142.741 80.323 145.307 78.8606C147.877 77.3756 150.844 76.7064 153.755 76.6914C156.667 76.7064 159.631 77.3756 162.2 78.8606C164.768 80.323 166.886 82.6353 168.02 85.363C168.605 86.7151 168.964 88.1529 169.15 89.5943C169.333 91.0608 169.272 92.4764 169.256 93.8585L169.074 102.203H168.022Z" fill="#0E538C"/>
<path d="M139.274 106.734C137.392 106.734 136.917 105.387 136.917 103.725V98.3296C136.917 96.6685 137.392 95.3193 139.274 95.3193H139.724V106.734H139.274Z" fill="#0B4870"/>
<path d="M139.724 95.3203H140.696V106.735H139.724V95.3203Z" fill="#0D357D"/>
<path d="M168.521 106.734C170.405 106.734 170.883 105.387 170.883 103.725V98.3296C170.883 96.6685 170.405 95.3193 168.521 95.3193H168.071V106.734H168.521Z" fill="#0B4870"/>
<path d="M167.098 95.3203H168.071V106.735H167.098V95.3203Z" fill="#0D357D"/>
<path d="M154.452 117.135V116.088C158.794 116.088 167.062 109.933 167.062 106.733H168.109C168.109 110.783 158.963 117.135 154.452 117.135Z" fill="#E7EBF2"/>
<path d="M155.149 118.074H153.751C152.591 118.074 151.653 117.421 151.653 116.611C151.653 115.804 152.591 115.152 153.751 115.152H155.149C156.308 115.152 157.247 115.805 157.247 116.611C157.246 117.421 156.308 118.074 155.149 118.074Z" fill="#0B4870"/>
<path d="M117.014 60.7234V68.9915L116.964 80.2154L116.897 93.7719L116.855 103.773L106.868 93.7336L103.821 93.7228L63.4093 93.5342C56.5819 92.2054 51.4297 86.2113 51.4297 79.0242V60.7234C51.4297 53.1316 57.1837 46.8616 64.5745 46.0361L105.082 46.2223C111.882 47.5613 117.014 53.5441 117.014 60.7234Z" fill="#0D357D"/>
<path opacity="0.8" d="M104.416 61.1202C104.416 61.4054 104.36 61.6877 104.251 61.9512C104.142 62.2147 103.981 62.4542 103.78 62.6559C103.578 62.8577 103.338 63.0178 103.074 63.1271C102.81 63.2364 102.527 63.2928 102.241 63.2931H64.9903C64.7043 63.2931 64.4212 63.2369 64.157 63.1277C63.8928 63.0184 63.6528 62.8584 63.4506 62.6566C63.2485 62.4548 63.0882 62.2153 62.9788 61.9517C62.8695 61.6881 62.8133 61.4055 62.8135 61.1202C62.8135 60.8351 62.8698 60.5527 62.9792 60.2893C63.0886 60.0259 63.2489 59.7865 63.4511 59.5849C63.6532 59.3833 63.8932 59.2234 64.1573 59.1143C64.4214 59.0052 64.7044 58.9491 64.9903 58.9492H102.241C103.441 58.9492 104.416 59.9207 104.416 61.1202ZM104.416 69.2058C104.415 69.7814 104.186 70.3334 103.779 70.7408C103.371 71.1482 102.818 71.3778 102.241 71.3792H64.9903C64.413 71.3781 63.8597 71.1487 63.4516 70.7413C63.0436 70.3339 62.8141 69.7817 62.8135 69.2058C62.8134 68.9205 62.8696 68.6381 62.979 68.3745C63.0883 68.1109 63.2487 67.8714 63.4508 67.6696C63.6529 67.4679 63.8929 67.3078 64.1571 67.1986C64.4212 67.0893 64.7043 67.033 64.9903 67.033H102.241C102.527 67.0332 102.81 67.0896 103.074 67.1989C103.338 67.3082 103.578 67.4684 103.78 67.6701C103.981 67.8719 104.142 68.1113 104.251 68.3748C104.36 68.6383 104.416 68.9207 104.416 69.2058ZM93.0355 77.2907C93.0355 78.4819 92.0575 79.4576 90.8551 79.4576H64.9879C64.4122 79.457 63.8604 79.2284 63.4536 78.8221C63.0468 78.4158 62.8183 77.865 62.8183 77.2907C62.8183 76.6904 63.0553 76.1505 63.4513 75.756C63.6522 75.553 63.8914 75.3918 64.1552 75.2817C64.4189 75.1715 64.702 75.1147 64.9879 75.1143H90.8551C91.4334 75.115 91.9878 75.3445 92.3966 75.7526C92.8054 76.1606 93.0352 76.7138 93.0355 77.2907Z" fill="#E7EBF2"/>
</g>
<defs>
<clipPath id="clip0_5418_11410">
<rect width="300" height="252" fill="white"/>
</clipPath>
</defs>
</svg>
