<svg width="32" height="32" viewBox="0 0 32 32" fill="none" xmlns="http://www.w3.org/2000/svg">
<path opacity="0.4" d="M27.0268 22.92C25.6935 24.1334 23.9735 24.8 22.1735 24.7867H22.0535C22.4535 23.96 22.6668 23.0267 22.6668 22.04C22.6668 18.36 19.6801 15.3734 16.0001 15.3734C12.3201 15.3734 9.33345 18.36 9.33345 22.04C9.33345 23.0267 9.54679 23.96 9.94679 24.7867H7.38679C1.14679 24.3467 1.14679 15.2667 7.38679 14.8267H7.45345C3.17345 2.92003 21.2268 -1.83997 23.2935 10.6667C29.0668 11.4 31.4001 19.0934 27.0268 22.92Z" fill="currentColor"/>
<path d="M15.9999 15.3733C12.3199 15.3733 9.33325 18.36 9.33325 22.04C9.33325 23.0266 9.54659 23.96 9.94659 24.7866C10.0533 25.0266 10.1733 25.2533 10.3066 25.4666C11.4533 27.4 13.5733 28.7066 15.9999 28.7066C18.4266 28.7066 20.5466 27.4 21.6933 25.4666C21.8266 25.2533 21.9466 25.0266 22.0533 24.7866C22.4533 23.96 22.6666 23.0266 22.6666 22.04C22.6666 18.36 19.6799 15.3733 15.9999 15.3733ZM17.9999 24.1866C17.7999 24.3866 17.5466 24.48 17.2933 24.48C17.0399 24.48 16.7866 24.3866 16.5866 24.1866L15.8799 23.48L15.1466 24.2133C14.9466 24.4133 14.6933 24.5066 14.4399 24.5066C14.1866 24.5066 13.9333 24.4133 13.7333 24.2133C13.3466 23.8266 13.3466 23.1866 13.7333 22.8L14.4666 22.0666L13.7599 21.36C13.3733 20.9733 13.3733 20.3333 13.7599 19.9466C14.1466 19.56 14.7866 19.56 15.1733 19.9466L15.8799 20.6533L16.5466 19.9866C16.9333 19.6 17.5733 19.6 17.9599 19.9866C18.3466 20.3733 18.3466 21.0133 17.9599 21.4L17.2933 22.0666L17.9999 22.7733C18.3866 23.1733 18.3866 23.8 17.9999 24.1866Z" fill="currentColor"/>
</svg>
