<svg width="32" height="32" viewBox="0 0 32 32" fill="none" xmlns="http://www.w3.org/2000/svg">
<path opacity="0.4" d="M16.0001 29.3334C23.3639 29.3334 29.3334 23.3639 29.3334 16.0001C29.3334 8.63628 23.3639 2.66675 16.0001 2.66675C8.63628 2.66675 2.66675 8.63628 2.66675 16.0001C2.66675 23.3639 8.63628 29.3334 16.0001 29.3334Z" fill="currentColor"/>
<path d="M16 18.3334C16.5467 18.3334 17 17.8801 17 17.3334V10.6667C17 10.1201 16.5467 9.66675 16 9.66675C15.4533 9.66675 15 10.1201 15 10.6667V17.3334C15 17.8801 15.4533 18.3334 16 18.3334Z" fill="black"/>
<path d="M17.2267 20.8266C17.1601 20.6666 17.0667 20.5199 16.9467 20.3866C16.8134 20.2666 16.6667 20.1733 16.5067 20.1066C16.1867 19.9733 15.8134 19.9733 15.4934 20.1066C15.3334 20.1733 15.1867 20.2666 15.0534 20.3866C14.9334 20.5199 14.8401 20.6666 14.7734 20.8266C14.7067 20.9866 14.6667 21.1599 14.6667 21.3333C14.6667 21.5066 14.7067 21.6799 14.7734 21.8399C14.8401 22.0133 14.9334 22.1466 15.0534 22.2799C15.1867 22.3999 15.3334 22.4933 15.4934 22.5599C15.6534 22.6266 15.8267 22.6666 16.0001 22.6666C16.1734 22.6666 16.3467 22.6266 16.5067 22.5599C16.6667 22.4933 16.8134 22.3999 16.9467 22.2799C17.0667 22.1466 17.1601 22.0133 17.2267 21.8399C17.2934 21.6799 17.3334 21.5066 17.3334 21.3333C17.3334 21.1599 17.2934 20.9866 17.2267 20.8266Z" fill="black"/>
</svg>
