<svg width="32" height="32" viewBox="0 0 32 32" fill="none" xmlns="http://www.w3.org/2000/svg">
<path opacity="0.4" d="M15.9998 3.16675C23.0873 3.16675 28.8336 8.91225 28.8337 15.9998C28.8337 23.0874 23.0874 28.8337 15.9998 28.8337C8.91225 28.8336 3.16675 23.0873 3.16675 15.9998C3.16692 8.91236 8.91236 3.16692 15.9998 3.16675Z" fill="currentColor" stroke="currentColor"/>
<path d="M14.1067 20.7732C13.84 20.7732 13.5867 20.6666 13.4 20.4799L9.62667 16.7066C9.24 16.3199 9.24 15.6799 9.62667 15.2932C10.0133 14.9066 10.6533 14.9066 11.04 15.2932L14.1067 18.3599L20.96 11.5066C21.3467 11.1199 21.9867 11.1199 22.3733 11.5066C22.76 11.8932 22.76 12.5332 22.3733 12.9199L14.8133 20.4799C14.6267 20.6666 14.3733 20.7732 14.1067 20.7732Z" fill="currentColor"/>
</svg>
