<svg width="32" height="32" viewBox="0 0 32 32" fill="none" xmlns="http://www.w3.org/2000/svg">
<path opacity="0.4" d="M28.1066 11.4401V20.5601C28.1066 22.0534 27.3066 23.4401 26.0133 24.2001L18.0933 28.7735C16.7999 29.5201 15.1999 29.5201 13.8932 28.7735L5.97323 24.2001C4.67989 23.4535 3.87988 22.0667 3.87988 20.5601V11.4401C3.87988 9.94679 4.67989 8.56007 5.97323 7.80007L13.8932 3.22675C15.1866 2.48008 16.7866 2.48008 18.0933 3.22675L26.0133 7.80007C27.3066 8.56007 28.1066 9.93346 28.1066 11.4401Z" fill="currentColor"/>
<path d="M16 18.3333C15.4533 18.3333 15 17.8799 15 17.3333V10.3333C15 9.78659 15.4533 9.33325 16 9.33325C16.5467 9.33325 17 9.78659 17 10.3333V17.3333C17 17.8799 16.5467 18.3333 16 18.3333Z" fill="currentColor"/>
<path d="M16.0001 22.9999C15.8267 22.9999 15.6534 22.9599 15.4934 22.8932C15.3201 22.8265 15.1867 22.7333 15.0534 22.6133C14.9334 22.4799 14.8401 22.3332 14.7601 22.1732C14.6934 22.0132 14.6667 21.8399 14.6667 21.6666C14.6667 21.3199 14.8001 20.9732 15.0534 20.7199C15.1867 20.5999 15.3201 20.5066 15.4934 20.4399C15.9867 20.2266 16.5734 20.3465 16.9468 20.7199C17.0668 20.8532 17.1601 20.9866 17.2267 21.1599C17.2934 21.3199 17.3334 21.4932 17.3334 21.6666C17.3334 21.8399 17.2934 22.0132 17.2267 22.1732C17.1601 22.3332 17.0668 22.4799 16.9468 22.6133C16.6934 22.8666 16.3601 22.9999 16.0001 22.9999Z" fill="currentColor"/>
</svg>
